<svg width="118" height="118" viewBox="0 0 118 118" fill="none" xmlns="http://www.w3.org/2000/svg">
<rect x="2.41431" y="16.3316" width="100" height="100" rx="20" transform="rotate(-8 2.41431 16.3316)" fill="white" stroke="#AB00E0" stroke-width="10"/>
<path d="M61.0364 83.8293C57.4028 84.8712 53.8963 85.1589 50.5168 84.6923C47.1373 84.2258 44.0126 83.1244 41.1429 81.3881C38.3143 79.5777 35.889 77.2146 33.867 74.299C31.8285 71.3257 30.3623 67.845 29.4684 63.8569C28.5168 59.8854 28.2122 55.8843 28.5545 51.8538C28.8968 47.8234 29.8368 44.0272 31.3746 40.4653C32.9701 36.8869 35.1429 33.7984 37.8932 31.1996C40.6845 28.5267 44.0412 26.6279 47.9631 25.5033C50.9046 24.6599 53.9659 24.1254 57.1469 23.8998C60.3114 23.6166 63.427 23.8155 66.4935 24.4967C69.6012 25.1036 72.524 26.2629 75.2618 27.9745C78.0573 29.6696 80.4909 32.0615 82.5625 35.1501C84.6176 38.1811 86.183 42.0079 87.2588 46.6304C88.1442 50.3713 88.2589 53.9274 87.6028 57.2989C86.9878 60.5961 85.8122 63.6796 84.0759 66.5493C82.3973 69.4026 80.3023 72.0007 77.7909 74.3437C75.3205 76.6125 72.6356 78.5683 69.7361 80.2112C66.8778 81.7798 63.9779 82.9858 61.0364 83.8293ZM76.3605 91.2322C75.0756 91.9751 73.8726 92.3513 72.7518 92.3606C71.6475 92.4276 70.6377 92.2802 69.7226 91.9184C68.8816 91.5978 68.1931 91.2647 67.6571 90.919C67.1787 90.5569 66.9395 90.3758 66.9395 90.3758C64.6949 87.3367 62.7597 84.6147 61.1338 82.2097C59.4913 79.747 57.9973 77.3666 56.6517 75.0685C55.3473 72.6961 54.0757 70.2207 52.837 67.6423C52.837 67.6423 52.7709 67.4116 52.6386 66.9502C52.5474 66.4146 52.4974 65.8047 52.4885 65.1207C52.5373 64.4201 52.7468 63.7358 53.117 63.0679C53.4872 62.4 54.0884 61.8843 54.9205 61.5209C56.1562 61.0417 57.244 60.917 58.1838 61.1469C59.1812 61.3602 59.9851 61.6603 60.5953 62.0471C61.2467 62.3596 61.5724 62.5159 61.5724 62.5159C62.7687 63.8582 64.3075 65.6328 66.1887 67.8397C68.0533 69.989 70.0666 72.439 72.2286 75.1896C74.3739 77.8826 76.503 80.7363 78.6157 83.7507C78.6157 83.7507 78.719 84.002 78.9255 84.5045C79.1897 84.9905 79.3428 85.6332 79.3848 86.4326C79.4844 87.2155 79.308 88.0151 78.8555 88.8315C78.4772 89.689 77.6455 90.4892 76.3605 91.2322ZM59.9355 70.1946C61.4351 69.7646 62.9056 69.1244 64.3471 68.2742C65.7886 67.4239 67.1062 66.3595 68.3 65.0809C69.4938 63.8023 70.4856 62.3632 71.2753 60.7636C72.0484 59.1062 72.5618 57.305 72.8154 55.3597C73.0525 53.3567 72.8857 51.2512 72.3149 49.043C71.6445 46.0519 70.6161 43.6628 69.2298 41.8757C67.8435 40.0886 66.2558 38.7961 64.4666 37.9984C62.6608 37.143 60.7607 36.7204 58.7663 36.7305C56.7553 36.683 54.7981 36.9321 52.8948 37.4778C51.0492 38.0071 49.4224 38.9729 48.0144 40.3753C46.5899 41.72 45.4459 43.3901 44.5824 45.3854C43.7601 47.3065 43.2511 49.4498 43.0556 51.8153C42.9012 54.1066 43.0971 56.4223 43.6433 58.7624C44.3633 61.9265 45.5361 64.4927 47.1615 66.4609C48.7705 68.3714 50.6714 69.6677 52.8643 70.3496C55.0407 70.9739 57.3978 70.9222 59.9355 70.1946Z" fill="#AB00E0"/>
</svg>
