<svg width="629" height="135" viewBox="0 0 629 135" fill="none" xmlns="http://www.w3.org/2000/svg">
<path d="M73.0659 34.2621C88.5474 37.4048 100.2 51.0911 100.2 67.5C100.2 83.909 88.5474 97.5952 73.0659 100.738V135C107.345 131.597 134.118 102.675 134.118 67.5C134.118 32.3252 107.345 3.40346 73.0659 0V34.2621Z" fill="#060505"/>
<path d="M10.8112 106.55C13.6763 110.613 16.9777 114.345 20.6447 117.682L39.6478 105.963L46.2392 109.652L46.1902 132.308C50.4614 133.631 54.9126 134.545 59.4989 135V100.738C51.9166 99.1987 45.2544 95.1298 40.4282 89.451L10.8112 106.55Z" fill="#060505"/>
<path d="M4.45566 39.5511C2.63469 43.573 1.19498 47.8044 0.181519 52.1987L20.0776 63.4418L20.0299 70.9951L0 81.9799C0.964218 86.4087 2.35971 90.6763 4.14166 94.7361L33.8832 77.564C32.8966 74.3843 32.3648 71.0041 32.3648 67.5C32.3648 63.7174 32.9857 60.0797 34.1283 56.6821L4.45566 39.5511Z" fill="#060505"/>
<path d="M59.4989 0C54.8914 0.457464 50.4198 1.37649 46.1306 2.70943L46.1955 24.7996L39.6081 28.4934L20.9733 17.0211C17.3677 20.2602 14.1105 23.8793 11.2657 27.8164L40.9476 44.9541C45.7274 39.5868 52.1846 35.7469 59.4989 34.2621V0Z" fill="#060505"/>
<path d="M206.794 72.9559C200.846 72.9559 195.636 71.8922 191.165 69.7649C186.737 67.6376 183.285 64.6637 180.81 60.8432C178.336 56.9793 177.098 52.4859 177.098 47.363C177.098 42.2401 178.336 37.7684 180.81 33.9479C183.285 30.084 186.737 27.0884 191.165 24.9611C195.636 22.8338 200.846 21.7702 206.794 21.7702C212.742 21.7702 217.93 22.8338 222.358 24.9611C226.83 27.0884 230.303 30.084 232.778 33.9479C235.252 37.7684 236.49 42.2401 236.49 47.363C236.49 52.4859 235.252 56.9793 232.778 60.8432C230.303 64.6637 226.83 67.6376 222.358 69.7649C217.93 71.8922 212.742 72.9559 206.794 72.9559ZM206.794 57.9779C209.442 57.9779 211.722 57.5654 213.632 56.7406C215.542 55.8723 216.996 54.6567 217.995 53.0937C219.037 51.4874 219.558 49.5772 219.558 47.363C219.558 45.1489 219.037 43.2603 217.995 41.6974C216.996 40.0911 215.542 38.8755 213.632 38.0506C211.722 37.1823 209.442 36.7482 206.794 36.7482C204.146 36.7482 201.866 37.1823 199.956 38.0506C198.046 38.8755 196.57 40.0911 195.528 41.6974C194.529 43.2603 194.03 45.1489 194.03 47.363C194.03 49.5772 194.529 51.4874 195.528 53.0937C196.57 54.6567 198.046 55.8723 199.956 56.7406C201.866 57.5654 204.146 57.9779 206.794 57.9779Z" fill="#060505"/>
<path d="M298.589 50.6191C298.068 55.0908 296.527 58.9981 293.965 62.341C291.447 65.6839 288.104 68.2888 283.936 70.1556C279.769 72.0225 274.993 72.9559 269.61 72.9559C263.792 72.9559 258.713 71.8922 254.371 69.7649C250.03 67.6376 246.643 64.6637 244.212 60.8432C241.824 56.9793 240.63 52.4859 240.63 47.363C240.63 42.2401 241.824 37.7684 244.212 33.9479C246.643 30.084 250.03 27.0884 254.371 24.9611C258.713 22.8338 263.792 21.7702 269.61 21.7702C274.993 21.7702 279.769 22.7036 283.936 24.5704C288.104 26.4372 291.447 29.0421 293.965 32.385C296.527 35.7279 298.068 39.6352 298.589 44.1069H281.722C281.332 42.4138 280.615 40.9811 279.573 39.8089C278.531 38.5933 277.164 37.6816 275.471 37.0738C273.821 36.4226 271.867 36.0969 269.61 36.0969C267.092 36.0969 264.921 36.5528 263.097 37.4645C261.317 38.3328 259.95 39.6135 258.995 41.3067C258.04 42.9999 257.562 45.0186 257.562 47.363C257.562 49.7074 258.04 51.7262 258.995 53.4193C259.95 55.0691 261.317 56.3498 263.097 57.2615C264.921 58.1732 267.092 58.6291 269.61 58.6291C271.867 58.6291 273.821 58.3469 275.471 57.7825C277.164 57.1747 278.531 56.2847 279.573 55.1125C280.615 53.8969 281.332 52.3991 281.722 50.6191H298.589Z" fill="#060505"/>
<path d="M360.404 50.6191C359.883 55.0908 358.341 58.9981 355.78 62.341C353.262 65.6839 349.919 68.2888 345.751 70.1556C341.583 72.0225 336.808 72.9559 331.424 72.9559C325.607 72.9559 320.527 71.8922 316.186 69.7649C311.844 67.6376 308.458 64.6637 306.027 60.8432C303.639 56.9793 302.445 52.4859 302.445 47.363C302.445 42.2401 303.639 37.7684 306.027 33.9479C308.458 30.084 311.844 27.0884 316.186 24.9611C320.527 22.8338 325.607 21.7702 331.424 21.7702C336.808 21.7702 341.583 22.7036 345.751 24.5704C349.919 26.4372 353.262 29.0421 355.78 32.385C358.341 35.7279 359.883 39.6352 360.404 44.1069H343.537C343.146 42.4138 342.43 40.9811 341.388 39.8089C340.346 38.5933 338.979 37.6816 337.285 37.0738C335.636 36.4226 333.682 36.0969 331.424 36.0969C328.906 36.0969 326.736 36.5528 324.912 37.4645C323.132 38.3328 321.765 39.6135 320.81 41.3067C319.854 42.9999 319.377 45.0186 319.377 47.363C319.377 49.7074 319.854 51.7262 320.81 53.4193C321.765 55.0691 323.132 56.3498 324.912 57.2615C326.736 58.1732 328.906 58.6291 331.424 58.6291C333.682 58.6291 335.636 58.3469 337.285 57.7825C338.979 57.1747 340.346 56.2847 341.388 55.1125C342.43 53.8969 343.146 52.3991 343.537 50.6191H360.404Z" fill="#060505"/>
<path d="M393.956 72.9559C388.008 72.9559 382.798 71.8922 378.326 69.7649C373.898 67.6376 370.447 64.6637 367.972 60.8432C365.497 56.9793 364.26 52.4859 364.26 47.363C364.26 42.2401 365.497 37.7684 367.972 33.9479C370.447 30.084 373.898 27.0884 378.326 24.9611C382.798 22.8338 388.008 21.7702 393.956 21.7702C399.903 21.7702 405.091 22.8338 409.52 24.9611C413.991 27.0884 417.465 30.084 419.939 33.9479C422.414 37.7684 423.651 42.2401 423.651 47.363C423.651 52.4859 422.414 56.9793 419.939 60.8432C417.465 64.6637 413.991 67.6376 409.52 69.7649C405.091 71.8922 399.903 72.9559 393.956 72.9559ZM393.956 57.9779C396.604 57.9779 398.883 57.5654 400.793 56.7406C402.704 55.8723 404.158 54.6567 405.157 53.0937C406.199 51.4874 406.719 49.5772 406.719 47.363C406.719 45.1489 406.199 43.2603 405.157 41.6974C404.158 40.0911 402.704 38.8755 400.793 38.0506C398.883 37.1823 396.604 36.7482 393.956 36.7482C391.307 36.7482 389.028 37.1823 387.118 38.0506C385.208 38.8755 383.731 40.0911 382.69 41.6974C381.691 43.2603 381.192 45.1489 381.192 47.363C381.192 49.5772 381.691 51.4874 382.69 53.0937C383.731 54.6567 385.208 55.8723 387.118 56.7406C389.028 57.5654 391.307 57.9779 393.956 57.9779Z" fill="#060505"/>
<path d="M427.987 55.6986H445.049C445.223 56.6537 445.722 57.4786 446.547 58.1732C447.372 58.8245 448.501 59.3454 449.933 59.7362C451.366 60.0835 453.081 60.2571 455.078 60.2571C457.683 60.2571 459.702 59.9966 461.134 59.4757C462.61 58.9547 463.348 58.1081 463.348 56.9359C463.348 56.1545 462.936 55.5032 462.111 54.9823C461.286 54.4179 459.593 54.0489 457.032 53.8752L448.957 53.3542C441.619 52.8767 436.323 51.3137 433.067 48.6655C429.811 46.0172 428.183 42.5223 428.183 38.1808C428.183 34.534 429.225 31.495 431.309 29.0638C433.392 26.6326 436.301 24.8092 440.035 23.5936C443.812 22.378 448.218 21.7702 453.255 21.7702C458.16 21.7702 462.502 22.4648 466.279 23.854C470.099 25.1999 473.117 27.1101 475.331 29.5848C477.588 32.0594 478.826 34.9465 479.043 38.246H461.981C461.851 37.4645 461.417 36.7916 460.678 36.2272C459.984 35.6628 458.985 35.2287 457.683 34.9248C456.38 34.6209 454.796 34.4689 452.929 34.4689C450.541 34.4689 448.653 34.7077 447.263 35.1852C445.918 35.6628 445.245 36.4443 445.245 37.5296C445.245 38.2677 445.635 38.8972 446.417 39.4182C447.242 39.9391 448.805 40.2864 451.106 40.4601L460.223 41.0462C464.998 41.3501 468.862 42.0664 471.814 43.1952C474.766 44.2806 476.916 45.8001 478.261 47.7537C479.651 49.7074 480.345 52.1169 480.345 54.9823C480.345 58.5857 479.282 61.7332 477.154 64.4249C475.027 67.1166 472.031 69.2222 468.167 70.7417C464.347 72.2178 459.875 72.9559 454.752 72.9559C449.456 72.9559 444.81 72.2395 440.816 70.8069C436.822 69.3742 433.696 67.3554 431.439 64.7505C429.225 62.1457 428.074 59.1284 427.987 55.6986Z" fill="#060505"/>
<path d="M190.579 120.674C187.735 120.674 185.239 120.142 183.09 119.078C180.962 118.015 179.302 116.539 178.108 114.65C176.914 112.74 176.317 110.515 176.317 107.975C176.317 105.435 176.914 103.221 178.108 101.333C179.302 99.4225 180.962 97.9356 183.09 96.8719C185.239 95.8083 187.735 95.2765 190.579 95.2765C193.422 95.2765 195.908 95.8083 198.035 96.8719C200.184 97.9356 201.856 99.4225 203.05 101.333C204.243 103.221 204.84 105.435 204.84 107.975C204.84 110.515 204.243 112.74 203.05 114.65C201.856 116.539 200.184 118.015 198.035 119.078C195.908 120.142 193.422 120.674 190.579 120.674ZM190.579 115.757C192.359 115.757 193.889 115.443 195.17 114.813C196.472 114.183 197.471 113.283 198.165 112.11C198.882 110.938 199.24 109.56 199.24 107.975C199.24 106.391 198.882 105.012 198.165 103.84C197.471 102.668 196.472 101.767 195.17 101.137C193.889 100.508 192.359 100.193 190.579 100.193C188.82 100.193 187.29 100.508 185.988 101.137C184.685 101.767 183.676 102.668 182.959 103.84C182.265 105.012 181.917 106.391 181.917 107.975C181.917 109.56 182.265 110.938 182.959 112.11C183.676 113.283 184.685 114.183 185.988 114.813C187.29 115.443 188.82 115.757 190.579 115.757Z" fill="#060505"/>
<path d="M229.395 112.631C229.178 114.216 228.559 115.616 227.539 116.832C226.54 118.047 225.249 118.992 223.664 119.665C222.079 120.337 220.31 120.674 218.356 120.674C216.142 120.674 214.189 120.272 212.495 119.469C210.824 118.644 209.511 117.494 208.556 116.018C207.622 114.542 207.156 112.848 207.156 110.938C207.156 109.006 207.622 107.313 208.556 105.859C209.511 104.383 210.824 103.232 212.495 102.407C214.189 101.582 216.142 101.17 218.356 101.17C220.31 101.17 222.079 101.517 223.664 102.212C225.249 102.885 226.54 103.829 227.539 105.045C228.559 106.239 229.178 107.639 229.395 109.245H223.957C223.675 107.986 223.024 107.02 222.003 106.347C221.005 105.653 219.789 105.305 218.356 105.305C217.206 105.305 216.197 105.533 215.328 105.989C214.482 106.423 213.83 107.064 213.375 107.91C212.919 108.735 212.691 109.744 212.691 110.938C212.691 112.11 212.919 113.12 213.375 113.966C213.83 114.791 214.482 115.432 215.328 115.888C216.197 116.322 217.206 116.539 218.356 116.539C219.811 116.539 221.037 116.181 222.036 115.464C223.056 114.748 223.696 113.804 223.957 112.631H229.395Z" fill="#060505"/>
<path d="M253.593 112.631C253.376 114.216 252.757 115.616 251.737 116.832C250.738 118.047 249.447 118.992 247.862 119.665C246.277 120.337 244.508 120.674 242.555 120.674C240.34 120.674 238.387 120.272 236.694 119.469C235.022 118.644 233.709 117.494 232.754 116.018C231.82 114.542 231.354 112.848 231.354 110.938C231.354 109.006 231.82 107.313 232.754 105.859C233.709 104.383 235.022 103.232 236.694 102.407C238.387 101.582 240.34 101.17 242.555 101.17C244.508 101.17 246.277 101.517 247.862 102.212C249.447 102.885 250.738 103.829 251.737 105.045C252.757 106.239 253.376 107.639 253.593 109.245H248.155C247.873 107.986 247.222 107.02 246.201 106.347C245.203 105.653 243.987 105.305 242.555 105.305C241.404 105.305 240.395 105.533 239.526 105.989C238.68 106.423 238.029 107.064 237.573 107.91C237.117 108.735 236.889 109.744 236.889 110.938C236.889 112.11 237.117 113.12 237.573 113.966C238.029 114.791 238.68 115.432 239.526 115.888C240.395 116.322 241.404 116.539 242.555 116.539C244.009 116.539 245.235 116.181 246.234 115.464C247.254 114.748 247.895 113.804 248.155 112.631H253.593Z" fill="#060505"/>
<path d="M256.529 101.463L259.231 101.984L261.966 101.463V120.186H256.529V101.463ZM259.231 99.5419C258.254 99.5419 257.451 99.2923 256.822 98.793C256.214 98.2721 255.91 97.5883 255.91 96.7417C255.91 95.8734 256.214 95.1896 256.822 94.6904C257.451 94.1694 258.254 93.9089 259.231 93.9089C260.23 93.9089 261.033 94.1694 261.641 94.6904C262.248 95.1896 262.552 95.8734 262.552 96.7417C262.552 97.5883 262.248 98.2721 261.641 98.793C261.033 99.2923 260.23 99.5419 259.231 99.5419Z" fill="#060505"/>
<path d="M264.179 105.761V103.352L268.054 102.082L270.366 96.7743H273.492V101.658H281.697V105.761H273.492V112.501C273.492 113.934 273.785 114.943 274.371 115.529C274.979 116.094 276.021 116.376 277.497 116.376C278.43 116.376 279.255 116.289 279.971 116.115C280.688 115.942 281.371 115.692 282.023 115.367V119.599C281.393 119.86 280.557 120.099 279.515 120.316C278.474 120.555 277.399 120.674 276.292 120.674C274.36 120.674 272.786 120.37 271.571 119.762C270.377 119.133 269.487 118.264 268.901 117.157C268.336 116.05 268.054 114.759 268.054 113.283V105.761H264.179Z" fill="#060505"/>
<path d="M301.379 120.186L300.598 113.413L301.477 110.938L300.598 108.496L301.379 101.658H307.012L305.938 110.938L307.012 120.186H301.379ZM302.812 110.938C302.465 112.892 301.824 114.607 300.891 116.083C299.979 117.537 298.818 118.666 297.407 119.469C296.018 120.272 294.455 120.674 292.718 120.674C290.916 120.674 289.321 120.272 287.932 119.469C286.542 118.644 285.457 117.505 284.676 116.05C283.916 114.574 283.536 112.87 283.536 110.938C283.536 108.985 283.916 107.281 284.676 105.826C285.457 104.35 286.542 103.21 287.932 102.407C289.321 101.582 290.916 101.17 292.718 101.17C294.455 101.17 296.018 101.572 297.407 102.375C298.818 103.178 299.99 104.318 300.924 105.794C301.857 107.248 302.486 108.963 302.812 110.938ZM289.039 110.938C289.039 112.024 289.256 112.979 289.69 113.804C290.146 114.628 290.764 115.28 291.546 115.757C292.327 116.213 293.228 116.441 294.249 116.441C295.269 116.441 296.224 116.213 297.114 115.757C298.026 115.28 298.829 114.628 299.523 113.804C300.218 112.979 300.761 112.024 301.151 110.938C300.761 109.853 300.218 108.898 299.523 108.073C298.829 107.226 298.026 106.575 297.114 106.119C296.224 105.642 295.269 105.403 294.249 105.403C293.228 105.403 292.327 105.642 291.546 106.119C290.764 106.575 290.146 107.226 289.69 108.073C289.256 108.898 289.039 109.853 289.039 110.938Z" fill="#060505"/>
<path d="M309.769 101.658H315.207L316.379 108.724V120.186H310.941V107.91L309.769 101.658ZM323.445 101.17C325.203 101.17 326.701 101.528 327.938 102.244C329.175 102.939 330.12 103.938 330.771 105.24C331.422 106.543 331.748 108.095 331.748 109.896V120.186H326.31V110.71C326.31 109.039 325.908 107.78 325.105 106.933C324.302 106.065 323.13 105.631 321.589 105.631C320.547 105.631 319.624 105.87 318.821 106.347C318.04 106.803 317.432 107.443 316.998 108.268C316.585 109.093 316.379 110.081 316.379 111.231L314.588 110.287C314.805 108.333 315.326 106.684 316.151 105.338C316.976 103.992 318.018 102.961 319.277 102.244C320.536 101.528 321.925 101.17 323.445 101.17Z" fill="#060505"/>
<path d="M335.578 101.463L338.28 101.984L341.015 101.463V120.186H335.578V101.463ZM338.28 99.5419C337.303 99.5419 336.5 99.2923 335.871 98.793C335.263 98.2721 334.959 97.5883 334.959 96.7417C334.959 95.8734 335.263 95.1896 335.871 94.6904C336.5 94.1694 337.303 93.9089 338.28 93.9089C339.279 93.9089 340.082 94.1694 340.69 94.6904C341.298 95.1896 341.601 95.8734 341.601 96.7417C341.601 97.5883 341.298 98.2721 340.69 98.793C340.082 99.2923 339.279 99.5419 338.28 99.5419Z" fill="#060505"/>
<path d="M355.569 120.674C353.377 120.674 351.412 120.272 349.676 119.469C347.961 118.644 346.604 117.494 345.605 116.018C344.629 114.542 344.14 112.827 344.14 110.873C344.14 108.941 344.607 107.248 345.54 105.794C346.495 104.339 347.798 103.21 349.448 102.407C351.097 101.582 352.975 101.17 355.081 101.17C357.23 101.17 359.075 101.648 360.616 102.603C362.157 103.536 363.34 104.86 364.165 106.575C365.012 108.29 365.435 110.309 365.435 112.631H348.503V109.017H362.505L360.388 110.32C360.301 109.234 360.03 108.312 359.574 107.552C359.14 106.792 358.543 106.206 357.783 105.794C357.023 105.381 356.133 105.175 355.113 105.175C354.006 105.175 353.04 105.403 352.215 105.859C351.412 106.293 350.783 106.912 350.327 107.715C349.893 108.496 349.676 109.419 349.676 110.482C349.676 111.763 349.958 112.859 350.522 113.771C351.087 114.683 351.911 115.377 352.997 115.855C354.082 116.333 355.395 116.571 356.937 116.571C358.326 116.571 359.726 116.376 361.137 115.985C362.548 115.573 363.818 114.998 364.947 114.259V117.906C363.731 118.775 362.309 119.458 360.681 119.958C359.075 120.435 357.371 120.674 355.569 120.674Z" fill="#060505"/>
<path d="M390.459 120.674C387.616 120.674 385.119 120.142 382.97 119.078C380.843 118.015 379.182 116.539 377.989 114.65C376.795 112.74 376.198 110.515 376.198 107.975C376.198 105.435 376.795 103.221 377.989 101.333C379.182 99.4225 380.843 97.9356 382.97 96.8719C385.119 95.8083 387.616 95.2765 390.459 95.2765C393.303 95.2765 395.789 95.8083 397.916 96.8719C400.065 97.9356 401.736 99.4225 402.93 101.333C404.124 103.221 404.721 105.435 404.721 107.975C404.721 110.515 404.124 112.74 402.93 114.65C401.736 116.539 400.065 118.015 397.916 119.078C395.789 120.142 393.303 120.674 390.459 120.674ZM390.459 115.757C392.239 115.757 393.77 115.443 395.05 114.813C396.353 114.183 397.351 113.283 398.046 112.11C398.762 110.938 399.121 109.56 399.121 107.975C399.121 106.391 398.762 105.012 398.046 103.84C397.351 102.668 396.353 101.767 395.05 101.137C393.77 100.508 392.239 100.193 390.459 100.193C388.701 100.193 387.171 100.508 385.868 101.137C384.566 101.767 383.556 102.668 382.84 103.84C382.145 105.012 381.798 106.391 381.798 107.975C381.798 109.56 382.145 110.938 382.84 112.11C383.556 113.283 384.566 114.183 385.868 114.813C387.171 115.443 388.701 115.757 390.459 115.757Z" fill="#060505"/>
<path d="M408.013 101.658H413.451V107.552L413.223 108.268V112.729L413.451 114.064V125.558H408.013V101.658ZM411.562 110.938C411.931 108.963 412.572 107.248 413.483 105.794C414.417 104.318 415.578 103.178 416.967 102.375C418.378 101.572 419.941 101.17 421.656 101.17C423.479 101.17 425.075 101.582 426.442 102.407C427.832 103.21 428.917 104.35 429.699 105.826C430.48 107.281 430.871 108.985 430.871 110.938C430.871 112.87 430.48 114.574 429.699 116.05C428.917 117.505 427.832 118.644 426.442 119.469C425.075 120.272 423.479 120.674 421.656 120.674C419.919 120.674 418.357 120.272 416.967 119.469C415.6 118.666 414.449 117.537 413.516 116.083C412.582 114.607 411.931 112.892 411.562 110.938ZM425.368 110.938C425.368 109.853 425.14 108.898 424.684 108.073C424.25 107.226 423.642 106.575 422.861 106.119C422.079 105.642 421.178 105.403 420.158 105.403C419.138 105.403 418.172 105.642 417.26 106.119C416.349 106.575 415.545 107.226 414.851 108.073C414.178 108.898 413.646 109.853 413.255 110.938C413.646 112.024 414.178 112.979 414.851 113.804C415.545 114.628 416.349 115.28 417.26 115.757C418.172 116.213 419.138 116.441 420.158 116.441C421.178 116.441 422.079 116.213 422.861 115.757C423.642 115.28 424.25 114.628 424.684 113.804C425.14 112.979 425.368 112.024 425.368 110.938Z" fill="#060505"/>
<path d="M444.507 120.674C442.315 120.674 440.35 120.272 438.614 119.469C436.899 118.644 435.542 117.494 434.544 116.018C433.567 114.542 433.079 112.827 433.079 110.873C433.079 108.941 433.545 107.248 434.479 105.794C435.434 104.339 436.736 103.21 438.386 102.407C440.036 101.582 441.913 101.17 444.019 101.17C446.168 101.17 448.013 101.648 449.554 102.603C451.096 103.536 452.279 104.86 453.103 106.575C453.95 108.29 454.373 110.309 454.373 112.631H437.442V109.017H451.443L449.326 110.32C449.24 109.234 448.968 108.312 448.512 107.552C448.078 106.792 447.481 106.206 446.722 105.794C445.962 105.381 445.072 105.175 444.052 105.175C442.945 105.175 441.979 105.403 441.154 105.859C440.35 106.293 439.721 106.912 439.265 107.715C438.831 108.496 438.614 109.419 438.614 110.482C438.614 111.763 438.896 112.859 439.46 113.771C440.025 114.683 440.85 115.377 441.935 115.855C443.02 116.333 444.334 116.571 445.875 116.571C447.264 116.571 448.664 116.376 450.075 115.985C451.486 115.573 452.756 114.998 453.885 114.259V117.906C452.669 118.775 451.248 119.458 449.619 119.958C448.013 120.435 446.309 120.674 444.507 120.674Z" fill="#060505"/>
<path d="M456.611 101.658H462.049L463.221 108.724V120.186H457.783V107.91L456.611 101.658ZM470.287 101.17C472.045 101.17 473.543 101.528 474.78 102.244C476.017 102.939 476.962 103.938 477.613 105.24C478.264 106.543 478.59 108.095 478.59 109.896V120.186H473.152V110.71C473.152 109.039 472.75 107.78 471.947 106.933C471.144 106.065 469.972 105.631 468.431 105.631C467.389 105.631 466.466 105.87 465.663 106.347C464.882 106.803 464.274 107.443 463.84 108.268C463.427 109.093 463.221 110.081 463.221 111.231L461.43 110.287C461.647 108.333 462.168 106.684 462.993 105.338C463.818 103.992 464.86 102.961 466.119 102.244C467.378 101.528 468.767 101.17 470.287 101.17Z" fill="#060505"/>
<path d="M489.904 112.208H495.505C495.635 113.033 495.993 113.76 496.579 114.39C497.187 114.998 497.99 115.475 498.989 115.822C500.009 116.148 501.181 116.311 502.505 116.311C504.437 116.311 505.957 116.039 507.064 115.497C508.193 114.932 508.757 114.151 508.757 113.152C508.757 112.371 508.431 111.774 507.78 111.362C507.151 110.927 505.968 110.613 504.231 110.417L499.314 109.864C496.145 109.516 493.844 108.778 492.411 107.65C491 106.499 490.295 104.904 490.295 102.863C490.295 101.257 490.762 99.8893 491.695 98.7605C492.65 97.6317 493.985 96.7743 495.7 96.1882C497.415 95.5804 499.434 95.2765 501.756 95.2765C504.014 95.2765 506.022 95.6129 507.78 96.2859C509.538 96.9371 510.938 97.8596 511.98 99.0535C513.022 100.226 513.587 101.604 513.674 103.189H508.073C507.965 102.472 507.639 101.854 507.096 101.333C506.575 100.79 505.848 100.378 504.915 100.095C503.981 99.7916 502.885 99.6396 501.626 99.6396C499.868 99.6396 498.468 99.9001 497.426 100.421C496.384 100.942 495.863 101.68 495.863 102.635C495.863 103.373 496.167 103.949 496.775 104.361C497.404 104.752 498.5 105.045 500.063 105.24L505.175 105.859C507.433 106.098 509.224 106.488 510.548 107.031C511.894 107.552 512.849 108.257 513.413 109.147C513.999 110.037 514.292 111.166 514.292 112.534C514.292 114.162 513.793 115.594 512.794 116.832C511.818 118.047 510.439 118.992 508.659 119.665C506.879 120.337 504.795 120.674 502.408 120.674C499.976 120.674 497.838 120.327 495.993 119.632C494.148 118.916 492.694 117.928 491.63 116.669C490.566 115.388 489.991 113.901 489.904 112.208Z" fill="#060505"/>
<path d="M528.107 120.674C525.807 120.674 523.788 120.272 522.051 119.469C520.315 118.644 518.958 117.505 517.981 116.05C517.004 114.574 516.516 112.87 516.516 110.938C516.516 108.985 517.004 107.281 517.981 105.826C518.958 104.35 520.315 103.21 522.051 102.407C523.788 101.582 525.807 101.17 528.107 101.17C530.408 101.17 532.427 101.582 534.164 102.407C535.9 103.21 537.246 104.35 538.201 105.826C539.178 107.281 539.667 108.985 539.667 110.938C539.667 112.87 539.178 114.574 538.201 116.05C537.246 117.505 535.9 118.644 534.164 119.469C532.427 120.272 530.408 120.674 528.107 120.674ZM528.107 116.539C529.367 116.539 530.441 116.311 531.331 115.855C532.243 115.399 532.937 114.759 533.415 113.934C533.914 113.087 534.164 112.089 534.164 110.938C534.164 109.766 533.914 108.768 533.415 107.943C532.937 107.096 532.243 106.445 531.331 105.989C530.441 105.533 529.367 105.305 528.107 105.305C526.87 105.305 525.796 105.533 524.884 105.989C523.972 106.445 523.267 107.096 522.768 107.943C522.29 108.768 522.051 109.766 522.051 110.938C522.051 112.089 522.29 113.087 522.768 113.934C523.267 114.759 523.972 115.399 524.884 115.855C525.796 116.311 526.87 116.539 528.107 116.539Z" fill="#060505"/>
<path d="M550.683 120.674C548.968 120.674 547.503 120.327 546.287 119.632C545.093 118.916 544.17 117.906 543.519 116.604C542.89 115.301 542.575 113.76 542.575 111.98V101.658H548.013V111.166C548.013 112.816 548.403 114.075 549.185 114.943C549.966 115.79 551.073 116.213 552.506 116.213C553.57 116.213 554.471 115.996 555.209 115.562C555.968 115.106 556.554 114.455 556.967 113.608C557.379 112.762 557.586 111.774 557.586 110.645L559.344 111.589C559.127 113.5 558.617 115.139 557.813 116.506C557.01 117.852 555.99 118.883 554.753 119.599C553.537 120.316 552.18 120.674 550.683 120.674ZM558.725 120.186L557.586 113.152V101.658H563.023V113.966L564.163 120.186H558.725Z" fill="#060505"/>
<path d="M566.504 101.658H572.007L573.114 108.333V120.186H567.676V107.747L566.504 101.658ZM582.133 101.463V106.152C581.569 106.022 581.005 105.924 580.44 105.859C579.876 105.794 579.344 105.761 578.845 105.761C577.759 105.761 576.783 105.989 575.914 106.445C575.046 106.901 574.362 107.606 573.863 108.561C573.364 109.516 573.114 110.721 573.114 112.176L571.974 110.808C572.105 109.484 572.343 108.247 572.691 107.096C573.038 105.924 573.516 104.904 574.123 104.035C574.753 103.145 575.524 102.451 576.435 101.951C577.347 101.43 578.432 101.17 579.691 101.17C580.104 101.17 580.516 101.203 580.929 101.268C581.363 101.311 581.764 101.376 582.133 101.463Z" fill="#060505"/>
<path d="M605.308 112.631C605.091 114.216 604.472 115.616 603.452 116.832C602.453 118.047 601.162 118.992 599.577 119.665C597.992 120.337 596.223 120.674 594.269 120.674C592.055 120.674 590.102 120.272 588.409 119.469C586.737 118.644 585.424 117.494 584.469 116.018C583.535 114.542 583.069 112.848 583.069 110.938C583.069 109.006 583.535 107.313 584.469 105.859C585.424 104.383 586.737 103.232 588.409 102.407C590.102 101.582 592.055 101.17 594.269 101.17C596.223 101.17 597.992 101.517 599.577 102.212C601.162 102.885 602.453 103.829 603.452 105.045C604.472 106.239 605.091 107.639 605.308 109.245H599.87C599.588 107.986 598.937 107.02 597.916 106.347C596.918 105.653 595.702 105.305 594.269 105.305C593.119 105.305 592.11 105.533 591.241 105.989C590.395 106.423 589.744 107.064 589.288 107.91C588.832 108.735 588.604 109.744 588.604 110.938C588.604 112.11 588.832 113.12 589.288 113.966C589.744 114.791 590.395 115.432 591.241 115.888C592.11 116.322 593.119 116.539 594.269 116.539C595.724 116.539 596.95 116.181 597.949 115.464C598.969 114.748 599.609 113.804 599.87 112.631H605.308Z" fill="#060505"/>
<path d="M618.695 120.674C616.503 120.674 614.539 120.272 612.802 119.469C611.087 118.644 609.73 117.494 608.732 116.018C607.755 114.542 607.267 112.827 607.267 110.873C607.267 108.941 607.733 107.248 608.667 105.794C609.622 104.339 610.924 103.21 612.574 102.407C614.224 101.582 616.101 101.17 618.207 101.17C620.356 101.17 622.201 101.648 623.742 102.603C625.284 103.536 626.467 104.86 627.292 106.575C628.138 108.29 628.561 110.309 628.561 112.631H611.63V109.017H625.631L623.515 110.32C623.428 109.234 623.156 108.312 622.701 107.552C622.266 106.792 621.669 106.206 620.91 105.794C620.15 105.381 619.26 105.175 618.24 105.175C617.133 105.175 616.167 105.403 615.342 105.859C614.539 106.293 613.909 106.912 613.453 107.715C613.019 108.496 612.802 109.419 612.802 110.482C612.802 111.763 613.084 112.859 613.649 113.771C614.213 114.683 615.038 115.377 616.123 115.855C617.209 116.333 618.522 116.571 620.063 116.571C621.452 116.571 622.852 116.376 624.263 115.985C625.674 115.573 626.944 114.998 628.073 114.259V117.906C626.857 118.775 625.436 119.458 623.808 119.958C622.201 120.435 620.497 120.674 618.695 120.674Z" fill="#060505"/>
</svg>
