<svg width="661" height="132" viewBox="0 0 661 132" fill="none" xmlns="http://www.w3.org/2000/svg">
<rect x="2.41431" y="29.9173" width="100" height="100" rx="20" transform="rotate(-8 2.41431 29.9173)" fill="white"/>
<rect x="2.41431" y="29.9173" width="100" height="100" rx="20" transform="rotate(-8 2.41431 29.9173)" stroke="#AB00E0" stroke-width="10"/>
<path d="M57.8343 98.1646C54.0911 98.6907 50.5786 98.4875 47.2969 97.5552C44.0152 96.6228 41.0743 95.0973 38.4741 92.9786C35.925 90.792 33.8522 88.1145 32.2557 84.9458C30.6508 81.7178 29.6833 78.0669 29.3531 73.9932C28.9635 69.9278 29.2187 65.9234 30.1186 61.9797C31.0185 58.0361 32.4777 54.4077 34.4963 51.0945C36.5742 47.773 39.1558 45.0169 42.2409 42.8262C45.3771 40.5678 48.9654 39.1546 53.0057 38.5868C56.0359 38.1609 59.1418 38.0577 62.3232 38.277C65.4964 38.437 68.5539 39.0676 71.4958 40.1689C74.4888 41.2024 77.2217 42.7572 79.6947 44.8332C82.2272 46.9009 84.3041 49.6082 85.9257 52.9551C87.539 56.2425 88.5566 60.2499 88.9786 64.9772C89.3348 68.8049 88.9534 72.3424 87.8344 75.5897C86.7665 78.7693 85.1732 81.6591 83.0545 84.2593C80.9952 86.8511 78.5589 89.1324 75.7458 91.1031C72.9838 93.006 70.0528 94.5691 66.9529 95.7925C63.904 96.948 60.8645 97.7387 57.8343 98.1646ZM71.979 107.628C70.6031 108.185 69.3596 108.39 68.2483 108.243C67.1454 108.156 66.166 107.87 65.3101 107.384C64.522 106.949 63.8865 106.524 63.4038 106.107C62.9805 105.682 62.7689 105.469 62.7689 105.469C60.9691 102.147 59.4315 99.1822 58.1561 96.5743C56.8724 93.907 55.7242 91.3419 54.7116 88.8788C53.75 86.348 52.8353 83.7198 51.9675 80.994C51.9675 80.994 51.9341 80.7563 51.8673 80.281C51.8516 79.7379 51.8869 79.1271 51.9733 78.4484C52.1191 77.7615 52.4218 77.113 52.8814 76.5031C53.341 75.8932 54.0081 75.4662 54.8826 75.2221C56.173 74.9196 57.2676 74.9475 58.1662 75.306C59.1243 75.656 59.8785 76.065 60.429 76.533C61.0306 76.9332 61.3313 77.1332 61.3313 77.1332C62.3292 78.6289 63.606 80.6004 65.1617 83.0477C66.7091 85.4356 68.3619 88.1419 70.1199 91.1667C71.8697 94.132 73.5808 97.2543 75.2535 100.533C75.2535 100.533 75.3208 100.797 75.4553 101.323C75.6493 101.841 75.7115 102.499 75.6418 103.296C75.6315 104.085 75.3455 104.853 74.7838 105.598C74.2898 106.395 73.3549 107.071 71.979 107.628ZM58.6417 84.5094C60.1865 84.2922 61.7318 83.863 63.2776 83.2216C64.8234 82.5803 66.2764 81.7096 67.6365 80.6096C68.9966 79.5096 70.179 78.2225 71.1836 76.7483C72.1799 75.2147 72.939 73.5024 73.4609 71.6114C73.9744 69.6609 74.1023 67.5526 73.8444 65.2865C73.5967 62.2312 72.9109 59.7222 71.7868 57.7596C70.6627 55.7969 69.2703 54.2961 67.6095 53.2571C65.9404 52.1587 64.1176 51.4758 62.1411 51.2082C60.1563 50.8813 58.1835 50.8556 56.2228 51.1312C54.3215 51.3984 52.5761 52.1284 50.9867 53.3212C49.3888 54.4546 48.0236 55.9492 46.8908 57.8049C45.8091 59.5928 45.0068 61.6444 44.484 63.9597C44.0122 66.2073 43.8839 68.5277 44.0991 70.9211C44.3717 74.1546 45.1759 76.859 46.5117 79.0342C47.8391 81.1501 49.5411 82.6983 51.6178 83.6788C53.6861 84.5999 56.0274 84.8768 58.6417 84.5094Z" fill="#AB00E0"/>
<path d="M170.614 100.7C166.414 100.7 162.581 99.9333 159.114 98.4C155.648 96.8667 152.648 94.7333 150.114 92C147.648 89.2 145.781 85.9333 144.514 82.2C143.248 78.4 142.748 74.2333 143.014 69.7C143.214 65.1667 144.114 60.8 145.714 56.6C147.314 52.4 149.481 48.6333 152.214 45.3C155.014 41.9667 158.281 39.3333 162.014 37.4C165.814 35.4 169.981 34.4 174.514 34.4C177.914 34.4 181.348 34.7667 184.814 35.5C188.281 36.1667 191.548 37.3333 194.614 39C197.748 40.6 200.514 42.7333 202.914 45.4C205.381 48.0667 207.248 51.3667 208.514 55.3C209.781 59.1667 210.281 63.7333 210.014 69C209.814 73.2667 208.848 77.1 207.114 80.5C205.448 83.8333 203.248 86.7667 200.514 89.3C197.848 91.8333 194.814 93.9667 191.414 95.7C188.081 97.3667 184.614 98.6333 181.014 99.5C177.481 100.3 174.014 100.7 170.614 100.7ZM184.714 113.3C183.114 113.7 181.714 113.733 180.514 113.4C179.314 113.133 178.281 112.667 177.414 112C176.614 111.4 175.981 110.833 175.514 110.3C175.114 109.767 174.914 109.5 174.914 109.5C173.448 105.567 172.214 102.067 171.214 99C170.214 95.8667 169.348 92.8667 168.614 90C167.948 87.0667 167.348 84.0333 166.814 80.9C166.814 80.9 166.814 80.6333 166.814 80.1C166.881 79.5 167.014 78.8333 167.214 78.1C167.481 77.3667 167.914 76.7 168.514 76.1C169.114 75.5 169.914 75.1333 170.914 75C172.381 74.8667 173.581 75.0667 174.514 75.6C175.514 76.1333 176.281 76.7 176.814 77.3C177.414 77.8333 177.714 78.1 177.714 78.1C178.581 79.9 179.681 82.2667 181.014 85.2C182.348 88.0667 183.748 91.3 185.214 94.9C186.681 98.4333 188.081 102.133 189.414 106C189.414 106 189.448 106.3 189.514 106.9C189.648 107.5 189.614 108.233 189.414 109.1C189.281 109.967 188.848 110.767 188.114 111.5C187.448 112.3 186.314 112.9 184.714 113.3ZM173.614 85.8C175.348 85.8 177.114 85.5667 178.914 85.1C180.714 84.6333 182.448 83.9 184.114 82.9C185.781 81.9 187.281 80.6667 188.614 79.2C189.948 77.6667 191.048 75.9 191.914 73.9C192.781 71.8333 193.248 69.5333 193.314 67C193.514 63.6 193.148 60.7333 192.214 58.4C191.281 56.0667 189.981 54.2 188.314 52.8C186.648 51.3333 184.748 50.3 182.614 49.7C180.481 49.0333 178.314 48.7 176.114 48.7C173.981 48.7 171.948 49.2333 170.014 50.3C168.081 51.3 166.348 52.7333 164.814 54.6C163.348 56.4 162.148 58.5333 161.214 61C160.348 63.4 159.848 65.9333 159.714 68.6C159.514 72.2 159.981 75.3 161.114 77.9C162.248 80.4333 163.881 82.4 166.014 83.8C168.148 85.1333 170.681 85.8 173.614 85.8ZM238.817 100C235.217 100 231.884 99.4 228.817 98.2C225.817 96.9333 223.151 95.2 220.817 93C218.551 90.7333 216.784 88.1333 215.517 85.2C214.317 82.2667 213.717 79.1333 213.717 75.8C213.784 72 214.484 68.5333 215.817 65.4C217.151 62.2667 218.951 59.5667 221.217 57.3C223.551 55.0333 226.251 53.2667 229.317 52C232.451 50.7333 235.784 50.1 239.317 50.1C244.717 50.0333 249.251 50.9 252.917 52.7C256.584 54.4333 259.351 57.1667 261.217 60.9C263.151 64.5667 264.117 69.2667 264.117 75C264.117 78.3333 263.617 81.5 262.617 84.5C261.617 87.4333 260.084 90.0667 258.017 92.4C255.951 94.6667 253.317 96.4667 250.117 97.8C246.917 99.1333 243.151 99.8667 238.817 100ZM239.317 86.3C240.851 86.3 242.284 85.9667 243.617 85.3C245.017 84.6333 246.217 83.7333 247.217 82.6C248.284 81.4 249.117 80.0667 249.717 78.6C250.384 77.1333 250.717 75.5667 250.717 73.9C250.717 71.1 250.251 68.8333 249.317 67.1C248.451 65.3 247.251 63.9667 245.717 63.1C244.251 62.2333 242.517 61.8 240.517 61.8C239.051 61.8 237.651 62.2 236.317 63C235.051 63.8 233.917 64.8333 232.917 66.1C231.984 67.3667 231.217 68.8 230.617 70.4C230.084 71.9333 229.817 73.5333 229.817 75.2C229.817 77.3333 230.184 79.2333 230.917 80.9C231.717 82.5667 232.851 83.9 234.317 84.9C235.784 85.8333 237.451 86.3 239.317 86.3ZM263.117 100C261.517 100 260.184 99.7333 259.117 99.2C258.117 98.6667 257.351 98.1333 256.817 97.6C256.351 97.0667 256.117 96.8 256.117 96.8C255.651 91.9333 255.251 87.1667 254.917 82.5C254.584 77.8333 254.417 73.0667 254.417 68.2C254.484 63.2667 254.751 58.1333 255.217 52.8C255.217 52.8 255.451 52.5667 255.917 52.1C256.384 51.5667 257.151 51.0667 258.217 50.6C259.284 50.0667 260.684 49.9 262.417 50.1C264.284 50.2333 265.684 50.7333 266.617 51.6C267.617 52.4667 268.284 53.4333 268.617 54.5C269.017 55.5 269.217 56.4 269.217 57.2C269.284 58 269.317 58.4 269.317 58.4C269.051 61.8 268.817 64.8333 268.617 67.5C268.484 70.1 268.417 72.6667 268.417 75.2C268.484 77.7333 268.584 80.5 268.717 83.5C268.851 86.5 269.017 90.0667 269.217 94.2C269.217 94.2 269.184 94.5 269.117 95.1C269.051 95.6333 268.817 96.3 268.417 97.1C268.084 97.8333 267.484 98.5 266.617 99.1C265.817 99.7 264.651 100 263.117 100ZM282.357 93C281.024 93.1333 279.991 92.8 279.257 92C278.524 91.1333 277.991 90.1333 277.657 89C277.324 87.8 277.124 86.7667 277.057 85.9C276.991 84.9667 276.957 84.5 276.957 84.5C276.557 82.7 276.257 81.3 276.057 80.3C275.924 79.2333 275.857 78.4 275.857 77.8C275.924 77.1333 275.991 76.5 276.057 75.9C276.191 75.2333 276.257 74.4333 276.257 73.5C276.524 69.5667 277.424 66.0667 278.957 63C280.491 59.9333 282.524 57.4 285.057 55.4C287.591 53.4 290.391 52 293.457 51.2C297.124 50.4667 300.391 50.2667 303.257 50.6C306.191 50.8667 308.724 51.5333 310.857 52.6C313.057 53.6 314.857 54.7667 316.257 56.1C316.257 56.1 316.424 56.3 316.757 56.7C317.091 57.0333 317.457 57.5333 317.857 58.2C318.324 58.8 318.657 59.5333 318.857 60.4C319.057 61.2 319.024 62.0333 318.757 62.9C318.491 63.7667 317.824 64.6667 316.757 65.6C315.824 66.4 314.724 66.8333 313.457 66.9C312.257 66.9 311.091 66.7 309.957 66.3C308.824 65.9 307.857 65.5 307.057 65.1C306.324 64.7 305.957 64.5 305.957 64.5C304.891 63.8333 303.491 63.5667 301.757 63.7C300.024 63.8333 298.257 64.3667 296.457 65.3C294.724 66.3 293.257 67.5667 292.057 69.1C290.857 70.5667 290.124 72.3 289.857 74.3C289.657 75.8333 289.491 77.2 289.357 78.4C289.291 79.5333 289.224 80.6 289.157 81.6C289.091 82.6 289.057 83.6667 289.057 84.8C289.057 85.8667 289.091 87.1333 289.157 88.6C289.157 88.6 288.991 88.9333 288.657 89.6C288.324 90.2667 287.657 90.9667 286.657 91.7C285.724 92.3667 284.291 92.8 282.357 93ZM283.257 99.9C281.791 99.7667 280.557 99.4333 279.557 98.9C278.624 98.3 277.857 97.6333 277.257 96.9C276.657 96.1667 276.224 95.5333 275.957 95C275.757 94.4 275.657 94.1 275.657 94.1C275.257 90.5 274.957 87.2 274.757 84.2C274.624 81.1333 274.557 78.1667 274.557 75.3C274.557 72.4333 274.624 69.4 274.757 66.2C274.957 62.9333 275.224 59.2667 275.557 55.2C275.557 55.2 275.624 54.9333 275.757 54.4C275.891 53.8667 276.157 53.2667 276.557 52.6C277.024 51.8667 277.757 51.2667 278.757 50.8C279.757 50.2667 281.057 50.0333 282.657 50.1C284.457 50.1 285.857 50.4667 286.857 51.2C287.924 51.9333 288.691 52.7667 289.157 53.7C289.691 54.5667 290.024 55.3333 290.157 56C290.357 56.6667 290.457 57 290.457 57C290.191 60.2667 289.991 63.3333 289.857 66.2C289.791 69.0667 289.757 71.9333 289.757 74.8C289.757 77.6 289.791 80.6 289.857 83.8C289.991 86.9333 290.157 90.4 290.357 94.2C290.357 94.2 290.291 94.5 290.157 95.1C290.091 95.7 289.824 96.4 289.357 97.2C288.957 98 288.257 98.6667 287.257 99.2C286.324 99.7333 284.991 99.9667 283.257 99.9ZM346.142 100C342.542 100 339.208 99.4 336.142 98.2C333.142 96.9333 330.475 95.2 328.142 93C325.875 90.7333 324.108 88.1333 322.842 85.2C321.642 82.2667 321.042 79.1333 321.042 75.8C321.108 72 321.808 68.5333 323.142 65.4C324.475 62.2667 326.275 59.5667 328.542 57.3C330.875 55.0333 333.575 53.2667 336.642 52C339.775 50.7333 343.108 50.1 346.642 50.1C352.042 50.0333 356.575 50.9 360.242 52.7C363.908 54.4333 366.675 57.1667 368.542 60.9C370.475 64.5667 371.442 69.2667 371.442 75C371.442 78.3333 370.942 81.5 369.942 84.5C368.942 87.4333 367.408 90.0667 365.342 92.4C363.275 94.6667 360.642 96.4667 357.442 97.8C354.242 99.1333 350.475 99.8667 346.142 100ZM346.642 86.3C348.175 86.3 349.608 85.9667 350.942 85.3C352.342 84.6333 353.542 83.7333 354.542 82.6C355.608 81.4 356.442 80.0667 357.042 78.6C357.708 77.1333 358.042 75.5667 358.042 73.9C358.042 71.1 357.575 68.8333 356.642 67.1C355.775 65.3 354.575 63.9667 353.042 63.1C351.575 62.2333 349.842 61.8 347.842 61.8C346.375 61.8 344.975 62.2 343.642 63C342.375 63.8 341.242 64.8333 340.242 66.1C339.308 67.3667 338.542 68.8 337.942 70.4C337.408 71.9333 337.142 73.5333 337.142 75.2C337.142 77.3333 337.508 79.2333 338.242 80.9C339.042 82.5667 340.175 83.9 341.642 84.9C343.108 85.8333 344.775 86.3 346.642 86.3ZM370.142 100C368.408 100 366.975 99.6667 365.842 99C364.775 98.3333 363.908 97.5667 363.242 96.7C362.642 95.7667 362.208 94.9667 361.942 94.3C361.742 93.6333 361.642 93.3 361.642 93.3C361.375 90.4333 361.142 87.2667 360.942 83.8C360.808 80.3333 360.708 76.7333 360.642 73C360.575 69.2 360.575 65.4 360.642 61.6C360.775 57.7333 360.942 53.9667 361.142 50.3C361.342 46.6333 361.575 43.1667 361.842 39.9C361.842 39.9 361.908 39.6333 362.042 39.1C362.242 38.5667 362.575 37.9667 363.042 37.3C363.575 36.5667 364.308 35.9667 365.242 35.5C366.242 35.0333 367.542 34.8667 369.142 35C370.875 35.1333 372.242 35.5667 373.242 36.3C374.242 37.0333 374.975 37.8667 375.442 38.8C375.975 39.6667 376.308 40.4333 376.442 41.1C376.575 41.7667 376.642 42.1 376.642 42.1C376.575 44.6333 376.475 47.5667 376.342 50.9C376.208 54.1667 376.108 57.6333 376.042 61.3C375.975 64.9667 375.942 68.7333 375.942 72.6C376.008 76.4 376.075 80.1667 376.142 83.9C376.208 87.5667 376.342 91.0333 376.542 94.3C376.542 94.3 376.475 94.6 376.342 95.2C376.275 95.7333 376.042 96.4 375.642 97.2C375.242 97.9333 374.608 98.6 373.742 99.2C372.875 99.7333 371.675 100 370.142 100ZM409.384 100.7C405.184 100.7 401.351 99.9333 397.884 98.4C394.417 96.8667 391.417 94.7333 388.884 92C386.417 89.2 384.551 85.9333 383.284 82.2C382.017 78.4 381.517 74.2333 381.784 69.7C381.984 65.1667 382.884 60.8 384.484 56.6C386.084 52.4 388.251 48.6333 390.984 45.3C393.784 41.9667 397.051 39.3333 400.784 37.4C404.584 35.4 408.751 34.4 413.284 34.4C416.684 34.4 420.117 34.7667 423.584 35.5C427.051 36.1667 430.317 37.3333 433.384 39C436.517 40.6 439.284 42.7333 441.684 45.4C444.151 48.0667 446.017 51.3667 447.284 55.3C448.551 59.1667 449.051 63.7333 448.784 69C448.584 73.2667 447.617 77.1 445.884 80.5C444.217 83.8333 442.017 86.7667 439.284 89.3C436.617 91.8333 433.584 93.9667 430.184 95.7C426.851 97.3667 423.384 98.6333 419.784 99.5C416.251 100.3 412.784 100.7 409.384 100.7ZM423.484 113.3C421.884 113.7 420.484 113.733 419.284 113.4C418.084 113.133 417.051 112.667 416.184 112C415.384 111.4 414.751 110.833 414.284 110.3C413.884 109.767 413.684 109.5 413.684 109.5C412.217 105.567 410.984 102.067 409.984 99C408.984 95.8667 408.117 92.8667 407.384 90C406.717 87.0667 406.117 84.0333 405.584 80.9C405.584 80.9 405.584 80.6333 405.584 80.1C405.651 79.5 405.784 78.8333 405.984 78.1C406.251 77.3667 406.684 76.7 407.284 76.1C407.884 75.5 408.684 75.1333 409.684 75C411.151 74.8667 412.351 75.0667 413.284 75.6C414.284 76.1333 415.051 76.7 415.584 77.3C416.184 77.8333 416.484 78.1 416.484 78.1C417.351 79.9 418.451 82.2667 419.784 85.2C421.117 88.0667 422.517 91.3 423.984 94.9C425.451 98.4333 426.851 102.133 428.184 106C428.184 106 428.217 106.3 428.284 106.9C428.417 107.5 428.384 108.233 428.184 109.1C428.051 109.967 427.617 110.767 426.884 111.5C426.217 112.3 425.084 112.9 423.484 113.3ZM412.384 85.8C414.117 85.8 415.884 85.5667 417.684 85.1C419.484 84.6333 421.217 83.9 422.884 82.9C424.551 81.9 426.051 80.6667 427.384 79.2C428.717 77.6667 429.817 75.9 430.684 73.9C431.551 71.8333 432.017 69.5333 432.084 67C432.284 63.6 431.917 60.7333 430.984 58.4C430.051 56.0667 428.751 54.2 427.084 52.8C425.417 51.3333 423.517 50.3 421.384 49.7C419.251 49.0333 417.084 48.7 414.884 48.7C412.751 48.7 410.717 49.2333 408.784 50.3C406.851 51.3 405.117 52.7333 403.584 54.6C402.117 56.4 400.917 58.5333 399.984 61C399.117 63.4 398.617 65.9333 398.484 68.6C398.284 72.2 398.751 75.3 399.884 77.9C401.017 80.4333 402.651 82.4 404.784 83.8C406.917 85.1333 409.451 85.8 412.384 85.8ZM496.049 98.8C494.249 98.3333 492.916 97.6 492.049 96.6C491.183 95.6 490.583 94.6 490.249 93.6C489.983 92.5333 489.849 91.6 489.849 90.8C489.916 90 489.949 89.6 489.949 89.6C490.549 85.4 490.749 81.3667 490.549 77.5C490.416 73.6333 489.716 70.5667 488.449 68.3C487.383 66.4333 486.016 65.2 484.349 64.6C482.749 63.9333 481.016 63.8 479.149 64.2C477.349 64.6 475.649 65.5 474.049 66.9C472.383 68.3 471.149 70 470.349 72C469.616 73.9333 469.116 75.9 468.849 77.9C468.649 79.9 468.516 81.6667 468.449 83.2C468.449 84.8667 468.416 86.2667 468.349 87.4C468.349 88.4667 468.349 89.4 468.349 90.2C468.416 90.9333 468.449 91.7 468.449 92.5C468.449 92.5 468.416 92.7333 468.349 93.2C468.349 93.6667 468.216 94.2 467.949 94.8C467.683 95.4 467.183 95.9667 466.449 96.5C465.716 96.9667 464.616 97.2667 463.149 97.4C461.949 97.4667 460.849 97.1667 459.849 96.5C458.916 95.8333 458.183 95.1667 457.649 94.5C457.116 93.8333 456.849 93.5 456.849 93.5C456.183 92.5 455.783 91.5333 455.649 90.6C455.583 89.6667 455.583 88.5333 455.649 87.2C455.716 85.8667 455.649 84.1333 455.449 82C455.183 79.4667 455.016 77.3 454.949 75.5C454.949 73.6333 455.049 72 455.249 70.6C455.516 69.1333 455.949 67.7333 456.549 66.4C457.149 65 457.983 63.5333 459.049 62C460.516 60.2 462.316 58.5 464.449 56.9C466.649 55.3 469.016 53.9667 471.549 52.9C474.083 51.7667 476.716 51.0667 479.449 50.8C482.183 50.4667 484.816 50.7 487.349 51.5C488.883 52.0333 490.516 52.8 492.249 53.8C493.983 54.7333 495.683 56 497.349 57.6C499.083 59.1333 500.616 61.1 501.949 63.5C503.349 65.9 504.449 68.7667 505.249 72.1C505.983 75.4333 506.316 78.7333 506.249 82C506.249 85.2 505.916 88.9667 505.249 93.3C505.249 93.3 505.149 93.6667 504.949 94.4C504.816 95.1333 504.449 95.9333 503.849 96.8C503.249 97.6667 502.316 98.3667 501.049 98.9C499.849 99.3667 498.183 99.3333 496.049 98.8ZM462.749 99.9C461.283 99.7667 460.049 99.4333 459.049 98.9C458.116 98.3 457.349 97.6333 456.749 96.9C456.149 96.1667 455.716 95.5333 455.449 95C455.249 94.4 455.149 94.1 455.149 94.1C454.749 90.5 454.449 87.2 454.249 84.2C454.116 81.1333 454.049 78.1667 454.049 75.3C454.049 72.4333 454.116 69.4 454.249 66.2C454.449 62.9333 454.716 59.2667 455.049 55.2C455.049 55.2 455.116 54.9333 455.249 54.4C455.383 53.8667 455.649 53.2667 456.049 52.6C456.516 51.8667 457.249 51.2667 458.249 50.8C459.249 50.2667 460.549 50.0333 462.149 50.1C463.949 50.1 465.349 50.4667 466.349 51.2C467.416 51.9333 468.183 52.7667 468.649 53.7C469.183 54.5667 469.516 55.3333 469.649 56C469.849 56.6667 469.949 57 469.949 57C469.683 60.2667 469.483 63.3333 469.349 66.2C469.283 69.0667 469.249 71.9333 469.249 74.8C469.249 77.6 469.283 80.6 469.349 83.8C469.483 86.9333 469.649 90.4 469.849 94.2C469.849 94.2 469.783 94.5 469.649 95.1C469.583 95.7 469.316 96.4 468.849 97.2C468.449 98 467.749 98.6667 466.749 99.2C465.816 99.7333 464.483 99.9667 462.749 99.9ZM527.012 100C525.279 100 523.845 99.6667 522.712 99C521.645 98.3333 520.812 97.5667 520.212 96.7C519.612 95.7667 519.179 94.9667 518.912 94.3C518.712 93.6333 518.612 93.3 518.612 93.3C518.345 90.4333 518.112 87.2667 517.912 83.8C517.712 80.3333 517.579 76.7333 517.512 73C517.512 69.2 517.545 65.4 517.612 61.6C517.679 57.7333 517.812 53.9667 518.012 50.3C518.212 46.6333 518.445 43.1667 518.712 39.9C518.712 39.9 518.779 39.6333 518.912 39.1C519.112 38.5667 519.445 37.9667 519.912 37.3C520.445 36.5667 521.179 35.9667 522.112 35.5C523.112 35.0333 524.412 34.8667 526.012 35C527.745 35.1333 529.112 35.5667 530.112 36.3C531.112 37.0333 531.845 37.8667 532.312 38.8C532.779 39.6667 533.079 40.4333 533.212 41.1C533.412 41.7667 533.512 42.1 533.512 42.1C533.445 44.6333 533.345 47.5667 533.212 50.9C533.079 54.1667 532.979 57.6333 532.912 61.3C532.845 64.9667 532.812 68.7333 532.812 72.6C532.879 76.4 532.945 80.1667 533.012 83.9C533.079 87.5667 533.212 91.0333 533.412 94.3C533.412 94.3 533.345 94.6 533.212 95.2C533.145 95.7333 532.912 96.4 532.512 97.2C532.112 97.9333 531.479 98.6 530.612 99.2C529.745 99.7333 528.545 100 527.012 100ZM541.012 64C535.745 64 530.779 63.9333 526.112 63.8C521.445 63.6 517.245 63.4667 513.512 63.4C513.512 63.4 513.145 63.3667 512.412 63.3C511.679 63.1667 510.779 62.9333 509.712 62.6C508.712 62.2 507.812 61.6 507.012 60.8C506.212 59.9333 505.745 58.8333 505.612 57.5C505.479 56.2333 505.645 55.2333 506.112 54.5C506.579 53.7 507.145 53.1333 507.812 52.8C508.545 52.4 509.179 52.1333 509.712 52C510.312 51.8 510.612 51.7 510.612 51.7C511.145 51.6333 512.145 51.5667 513.612 51.5C515.079 51.4333 516.845 51.3667 518.912 51.3C520.979 51.2333 523.179 51.2 525.512 51.2C527.912 51.1333 530.312 51.1 532.712 51.1C535.112 51.0333 537.379 51 539.512 51C539.512 51 539.812 51.0333 540.412 51.1C541.012 51.1667 541.712 51.3333 542.512 51.6C543.379 51.8 544.212 52.1667 545.012 52.7C545.879 53.2333 546.579 53.9333 547.112 54.8C547.712 55.6 547.979 56.6667 547.912 58C547.912 59.6 547.545 60.8667 546.812 61.8C546.079 62.6667 545.245 63.2333 544.312 63.5C543.445 63.7667 542.679 63.9333 542.012 64C541.345 64 541.012 64 541.012 64ZM574.169 100C570.569 100 567.236 99.4 564.169 98.2C561.169 96.9333 558.502 95.2 556.169 93C553.902 90.7333 552.136 88.1333 550.869 85.2C549.669 82.2667 549.069 79.1333 549.069 75.8C549.136 72 549.836 68.5333 551.169 65.4C552.502 62.2667 554.302 59.5667 556.569 57.3C558.902 55.0333 561.602 53.2667 564.669 52C567.802 50.7333 571.136 50.1 574.669 50.1C580.069 50.0333 584.602 50.9 588.269 52.7C591.936 54.4333 594.702 57.1667 596.569 60.9C598.502 64.5667 599.469 69.2667 599.469 75C599.469 78.3333 598.969 81.5 597.969 84.5C596.969 87.4333 595.436 90.0667 593.369 92.4C591.302 94.6667 588.669 96.4667 585.469 97.8C582.269 99.1333 578.502 99.8667 574.169 100ZM574.669 86.3C576.202 86.3 577.636 85.9667 578.969 85.3C580.369 84.6333 581.569 83.7333 582.569 82.6C583.636 81.4 584.469 80.0667 585.069 78.6C585.736 77.1333 586.069 75.5667 586.069 73.9C586.069 71.1 585.602 68.8333 584.669 67.1C583.802 65.3 582.602 63.9667 581.069 63.1C579.602 62.2333 577.869 61.8 575.869 61.8C574.402 61.8 573.002 62.2 571.669 63C570.402 63.8 569.269 64.8333 568.269 66.1C567.336 67.3667 566.569 68.8 565.969 70.4C565.436 71.9333 565.169 73.5333 565.169 75.2C565.169 77.3333 565.536 79.2333 566.269 80.9C567.069 82.5667 568.202 83.9 569.669 84.9C571.136 85.8333 572.802 86.3 574.669 86.3ZM598.469 100C596.869 100 595.536 99.7333 594.469 99.2C593.469 98.6667 592.702 98.1333 592.169 97.6C591.702 97.0667 591.469 96.8 591.469 96.8C591.002 91.9333 590.602 87.1667 590.269 82.5C589.936 77.8333 589.769 73.0667 589.769 68.2C589.836 63.2667 590.102 58.1333 590.569 52.8C590.569 52.8 590.802 52.5667 591.269 52.1C591.736 51.5667 592.502 51.0667 593.569 50.6C594.636 50.0667 596.036 49.9 597.769 50.1C599.636 50.2333 601.036 50.7333 601.969 51.6C602.969 52.4667 603.636 53.4333 603.969 54.5C604.369 55.5 604.569 56.4 604.569 57.2C604.636 58 604.669 58.4 604.669 58.4C604.402 61.8 604.169 64.8333 603.969 67.5C603.836 70.1 603.769 72.6667 603.769 75.2C603.836 77.7333 603.936 80.5 604.069 83.5C604.202 86.5 604.369 90.0667 604.569 94.2C604.569 94.2 604.536 94.5 604.469 95.1C604.402 95.6333 604.169 96.3 603.769 97.1C603.436 97.8333 602.836 98.5 601.969 99.1C601.169 99.7 600.002 100 598.469 100ZM633.409 100.9C627.942 100.633 623.542 99.5 620.209 97.5C616.876 95.4333 614.409 92.7 612.809 89.3C611.209 85.8333 610.242 81.9333 609.909 77.6C609.642 74.1333 610.009 70.7667 611.009 67.5C612.076 64.2333 613.676 61.3333 615.809 58.8C618.009 56.2 620.676 54.1667 623.809 52.7C626.942 51.1667 630.509 50.4333 634.509 50.5C638.042 50.5667 641.009 51.0333 643.409 51.9C645.809 52.7667 647.776 53.8333 649.309 55.1C650.909 56.3667 652.109 57.6333 652.909 58.9C653.776 60.1667 654.376 61.2333 654.709 62.1C655.042 62.9 655.209 63.3 655.209 63.3C655.209 63.3 655.176 63.6 655.109 64.2C655.109 64.8 654.909 65.5333 654.509 66.4C654.109 67.2667 653.376 68.1 652.309 68.9C651.509 69.4333 650.476 69.8333 649.209 70.1C648.009 70.3667 646.842 70.4 645.709 70.2C644.576 70 643.742 69.5667 643.209 68.9C643.076 68.9 642.842 68.7 642.509 68.3C642.242 67.8333 641.809 67.3667 641.209 66.9C640.676 66.3667 639.942 65.9333 639.009 65.6C638.142 65.2 637.076 65.0333 635.809 65.1C634.142 65.2333 632.709 65.6 631.509 66.2C630.309 66.7333 629.276 67.5 628.409 68.5C627.609 69.5 627.009 70.6333 626.609 71.9C626.209 73.1667 626.009 74.5333 626.009 76C626.009 78.2 626.376 80.0333 627.109 81.5C627.842 82.9 628.842 84 630.109 84.8C631.376 85.5333 632.742 85.9667 634.209 86.1C635.476 86.1667 636.676 86.0667 637.809 85.8C638.942 85.5333 640.009 85.2 641.009 84.8C642.009 84.3333 642.842 83.9333 643.509 83.6C644.176 83.2 644.642 82.9667 644.909 82.9C646.642 82.3667 648.142 82.2333 649.409 82.5C650.742 82.7667 651.909 83.2333 652.909 83.9C653.909 84.5 654.676 85.2333 655.209 86.1C656.142 87.3 656.609 88.4 656.609 89.4C656.676 90.4 656.576 91.2333 656.309 91.9C656.109 92.5 656.009 92.8 656.009 92.8C656.009 92.8 655.576 93.2333 654.709 94.1C653.909 94.9667 652.609 95.9667 650.809 97.1C649.076 98.2333 646.776 99.2 643.909 100C641.042 100.8 637.542 101.1 633.409 100.9Z" fill="#AB00E0"/>
</svg>
