<svg width="128" height="128" viewBox="0 0 128 128" fill="none" xmlns="http://www.w3.org/2000/svg">
<rect width="128" height="128" fill="#060505"/>
<path d="M67.7838 42.9617C77.5355 44.9357 84.8754 53.5328 84.8755 63.84C84.8755 74.1473 77.5356 82.7443 67.7838 84.7183V106.24C89.3762 104.102 106.24 85.9351 106.24 63.84C106.24 41.745 89.3762 23.5779 67.7838 21.44V42.9617Z" fill="url(#paint0_linear_122_2)"/>
<path d="M28.5699 88.3694C30.3746 90.9211 32.4542 93.2655 34.764 95.3618L46.7339 88.0007L50.8858 90.3176L50.855 104.549C53.5454 105.38 56.3492 105.954 59.238 106.24V84.7183C54.462 83.7515 50.2655 81.1956 47.2255 77.6285L28.5699 88.3694Z" fill="url(#paint1_linear_122_2)"/>
<path d="M24.5666 46.284C23.4196 48.8103 22.5127 51.4682 21.8743 54.2285L34.4068 61.2909L34.3767 66.0354L21.76 72.9355C22.3673 75.7174 23.2464 78.3981 24.3688 80.9483L43.1028 70.1617C42.4814 68.1643 42.1464 66.0411 42.1464 63.84C42.1464 61.4639 42.5375 59.1789 43.2572 57.0448L24.5666 46.284Z" fill="url(#paint2_linear_122_2)"/>
<path d="M59.238 21.44C56.3358 21.7274 53.5191 22.3046 50.8174 23.1419L50.8583 37.0178L46.7089 39.3381L34.9709 32.1318C32.6998 34.1664 30.6481 36.4398 28.8562 38.9128L47.5526 49.6778C50.5635 46.3064 54.6308 43.8943 59.238 42.9617V21.44Z" fill="url(#paint3_linear_122_2)"/>
<defs>
<linearGradient id="paint0_linear_122_2" x1="64" y1="21.44" x2="64" y2="106.24" gradientUnits="userSpaceOnUse">
<stop offset="0.149038" stop-color="#EFEFEF"/>
</linearGradient>
<linearGradient id="paint1_linear_122_2" x1="64" y1="21.44" x2="64" y2="106.24" gradientUnits="userSpaceOnUse">
<stop stop-color="#EFEFEF"/>
</linearGradient>
<linearGradient id="paint2_linear_122_2" x1="64" y1="21.44" x2="64" y2="106.24" gradientUnits="userSpaceOnUse">
<stop stop-color="#EFEFEF"/>
</linearGradient>
<linearGradient id="paint3_linear_122_2" x1="64" y1="21.44" x2="64" y2="106.24" gradientUnits="userSpaceOnUse">
<stop stop-color="#EFEFEF"/>
</linearGradient>
</defs>
</svg>
