<svg width="512" height="127" viewBox="0 0 512 127" fill="none" xmlns="http://www.w3.org/2000/svg">
<path fill-rule="evenodd" clip-rule="evenodd" d="M268.066 23.0397C275.169 23.0397 281.571 24.7724 287.271 28.2377C292.972 31.6093 297.504 36.1987 300.869 42.0054C304.233 47.7185 305.915 54.1342 305.915 61.2522C305.915 68.3702 304.187 74.8326 300.729 80.6394C297.364 86.3525 292.738 90.8949 286.851 94.2666C281.057 97.6382 274.562 99.3239 267.366 99.3239C263.908 99.3239 260.59 98.9026 257.413 98.0597C254.235 97.2168 251.245 95.9991 248.441 94.4069V127H225.732V24.023H248.161V29.5021C254.048 25.1939 260.684 23.0397 268.066 23.0397ZM264.141 42.4269C260.964 42.4269 258.067 42.942 255.45 43.9723C252.833 44.9088 250.497 46.3606 248.441 48.3275V74.3173C250.404 76.0968 252.74 77.5017 255.45 78.532C258.16 79.5622 261.057 80.0773 264.141 80.0773C267.879 80.0773 271.197 79.2812 274.094 77.689C276.991 76.0032 279.281 73.7554 280.963 70.9457C282.739 68.0423 283.627 64.8112 283.627 61.2522C283.627 57.6933 282.739 54.5088 280.963 51.6991C279.281 48.7957 276.945 46.5478 273.954 44.9556C271.057 43.2698 267.786 42.4269 264.141 42.4269Z" fill="#EE00FF"/>
<path d="M401.352 37.3189C401.352 37.3574 401.394 37.3808 401.427 37.3607L415.256 28.8249C415.28 28.8124 424.447 23.9022 430.674 24.4515C437.286 25.0347 441.664 27.8965 445.782 32.233C449.901 36.5696 453.169 41.7178 455.398 47.3837C457.57 52.906 458.714 58.8148 458.771 64.7889C458.771 68.9453 459.944 73.0085 462.137 76.4644C464.331 79.9203 467.448 82.614 471.095 84.2046C474.742 85.7952 478.756 86.2113 482.628 85.4005C486.499 84.5896 490.056 82.5875 492.848 79.6484C495.639 76.7094 497.539 72.9646 498.31 68.8882C499.08 64.8116 498.685 60.5857 497.174 56.7457C495.663 52.9058 493.105 49.6235 489.822 47.3144C488.019 46.046 486.042 45.1022 483.972 44.5094C482.637 44.127 482.186 41.8255 483.406 41.1372L486.627 39.3196C486.824 39.2086 486.868 38.9426 486.718 38.7731L480.822 32.1191C480.029 31.2234 480.632 29.7983 481.791 29.9109C487.291 30.4453 492.596 32.4155 497.215 35.6654C502.686 39.514 506.95 44.9842 509.468 51.3841C511.986 57.7843 512.644 64.8273 511.361 71.6217C510.077 78.4159 506.909 84.6567 502.257 89.5551C497.604 94.4536 491.676 97.7904 485.223 99.1419C478.77 100.493 472.082 99.7989 466.003 97.1479C459.924 94.4969 454.729 90.0075 451.074 84.2476C450.228 82.9141 449.473 81.5263 448.812 80.0951C447.989 78.3119 447.13 76.5393 446.034 74.9125C444.09 72.0275 441.641 69.2288 438.258 68.4971C434.434 67.67 431.592 69.1018 428.751 70.5336C428.137 70.8427 427.523 71.152 426.9 71.4384C425.437 72.1104 424.597 73.8478 425.223 75.3302C425.239 75.3701 425.264 75.4078 425.292 75.4408C431.296 82.4901 433.048 87.0941 433.892 95.8606C433.919 96.1324 433.999 96.3988 434.071 96.6624C434.489 98.2122 433.337 99.8144 431.67 99.8145H420.874C417.639 99.8145 417.726 97.5168 417.838 94.5367C418.012 89.9269 419.203 83.1216 407.3 81.225C403.325 80.5915 401.807 80.6397 401.352 79.8161V99.8145H379.639V4.94389L401.352 1.55568V37.3189Z" fill="#EE00FF"/>
<path fill-rule="evenodd" clip-rule="evenodd" d="M180.456 22.6182C188.026 22.6182 194.848 24.3508 200.923 27.8162C206.997 31.1878 211.81 35.8241 215.361 41.7245C218.913 47.5313 220.688 54.0406 220.688 61.2522C220.688 68.4638 218.913 74.973 215.361 80.7797C211.81 86.5865 206.997 91.2227 200.923 94.6881C194.848 98.0597 188.026 99.7454 180.456 99.7454C172.886 99.7454 166.064 98.0597 159.99 94.6881C153.915 91.2227 149.102 86.5865 145.551 80.7797C142 74.973 140.224 68.4638 140.224 61.2522C140.224 54.0406 142 47.5313 145.551 41.7245C149.102 35.8241 153.915 31.1879 159.99 27.8162C166.064 24.3508 172.886 22.6183 180.456 22.6182ZM180.456 42.2863C177.092 42.2863 174.008 43.1294 171.204 44.8152C168.494 46.5011 166.345 48.7957 164.756 51.6991C163.167 54.5088 162.373 57.6933 162.373 61.2522C162.373 64.7175 163.167 67.9018 164.756 70.8051C166.345 73.6149 168.494 75.8628 171.204 77.5487C174.008 79.2345 177.092 80.0773 180.456 80.0773C183.914 80.0773 186.998 79.2345 189.708 77.5487C192.418 75.8628 194.568 73.6149 196.157 70.8051C197.745 67.9018 198.54 64.7175 198.54 61.2522C198.54 57.6933 197.745 54.5088 196.157 51.6991C194.568 48.7957 192.372 46.5011 189.568 44.8152C186.858 43.1294 183.82 42.2863 180.456 42.2863Z" fill="#EE00FF"/>
<path d="M339.34 22.8992C344.76 22.8992 350.134 23.6484 355.461 25.1469C360.788 26.6454 365.741 28.8934 370.32 31.8905L359.526 46.5009C355.508 44.1595 351.676 42.4738 348.031 41.4436C344.386 40.3197 340.742 39.7576 337.097 39.7576C334.2 39.7576 331.864 40.2728 330.088 41.303C328.312 42.2396 327.425 43.504 327.425 45.0961C327.425 46.5947 328.079 47.8121 329.387 48.7487C330.696 49.5916 332.938 50.2473 336.116 50.7156L350.835 52.9633C358.124 53.9936 363.732 56.4287 367.657 60.2687C371.675 64.015 373.685 68.7915 373.685 74.5983C373.685 79.4684 372.236 83.7767 369.339 87.523C366.442 91.2693 362.47 94.2666 357.423 96.5143C352.47 98.6685 346.77 99.7454 340.321 99.7454C333.312 99.7454 326.817 98.9495 320.836 97.3573C314.855 95.6715 309.668 93.2363 305.276 90.0519L316.07 74.7388C320.743 77.5485 324.995 79.6091 328.826 80.9203C332.658 82.1379 336.443 82.7466 340.181 82.7466C343.919 82.7466 346.863 82.2315 349.013 81.2012C351.255 80.0774 352.377 78.6257 352.377 76.8463C352.377 75.4414 351.769 74.3173 350.555 73.4744C349.34 72.5378 347.424 71.8824 344.807 71.5078L330.088 69.2598C322.705 68.1359 317.051 65.7009 313.126 61.9546C309.294 58.1147 307.379 53.1507 307.379 47.063C307.379 42.0055 308.64 37.6972 311.164 34.1382C313.78 30.4856 317.472 27.7227 322.238 25.8496C327.004 23.8827 332.705 22.8992 339.34 22.8992Z" fill="#EE00FF"/>
<path fill-rule="evenodd" clip-rule="evenodd" d="M51.7268 0C58.1752 0 63.8759 1.40488 68.829 4.21462C73.8755 6.9307 77.8475 10.6769 80.7445 15.4535C83.6416 20.23 85.09 25.7091 85.09 31.8905C85.09 37.7909 83.6416 43.1294 80.7445 47.906C77.8475 52.5888 73.8755 56.2882 68.829 59.0042C63.7825 61.7203 58.0817 63.0785 51.7268 63.0785H24.1111V98.3406H0V0H51.7268ZM24.1111 43.1293H48.9233C52.4746 43.1293 55.3249 42.099 57.4743 40.0385C59.6237 37.9781 60.6986 35.3088 60.6986 32.0308C60.6986 28.6592 59.6237 25.9432 57.4743 23.8827C55.3249 21.7286 52.4746 20.6514 48.9233 20.6514H24.1111V43.1293Z" fill="#EE00FF"/>
<path d="M132.936 22.3373C136.954 22.431 139.805 23.0397 141.487 24.1636V43.9723C139.992 43.223 138.309 42.6609 136.44 42.2863C134.571 41.9117 132.655 41.7245 130.693 41.7245C127.142 41.7245 123.824 42.5673 120.74 44.2532C117.749 45.8453 115.32 48.14 113.451 51.137V98.3406H90.7413V24.023H113.451V31.469C115.88 28.4719 118.731 26.2242 122.002 24.7257C125.273 23.1335 128.917 22.3373 132.936 22.3373Z" fill="#EE00FF"/>
</svg>
