<svg width="237" height="51" viewBox="0 0 237 51" fill="none" xmlns="http://www.w3.org/2000/svg">
<path d="M27.5496 12.9435C33.3869 14.1307 37.7805 19.3011 37.7806 25.5C37.7806 31.6989 33.3869 36.8693 27.5496 38.0565V51C40.4747 49.7142 50.5692 38.7883 50.5692 25.5C50.5692 12.2117 40.4746 1.28575 27.5496 0V12.9435Z" fill="#18181C"/>
<path d="M4.07639 40.2523C5.15666 41.787 6.40147 43.1969 7.78411 44.4577L14.9493 40.0306L17.4346 41.424L17.4161 49.9829C19.0265 50.4827 20.7049 50.828 22.4341 51V38.0565C19.5752 37.4751 17.0632 35.9379 15.2435 33.7926L4.07639 40.2523Z" fill="#18181C"/>
<path d="M1.68001 14.9415C0.993411 16.4609 0.450565 18.0594 0.0684394 19.7195L7.5703 23.9669L7.55231 26.8204L0 30.9702C0.363557 32.6433 0.889731 34.2555 1.56162 35.7892L12.7757 29.302C12.4037 28.1007 12.2032 26.8238 12.2032 25.5C12.2032 24.071 12.4373 22.6968 12.8681 21.4133L1.68001 14.9415Z" fill="#18181C"/>
<path d="M22.4341 0C20.6969 0.17282 19.0108 0.520007 17.3936 1.02356L17.4181 9.36874L14.9343 10.7642L7.908 6.43018C6.54853 7.65384 5.32037 9.02108 4.24774 10.5084L15.4393 16.9826C17.2416 14.955 19.6763 13.5044 22.4341 12.9435V0Z" fill="#18181C"/>
<path d="M77.972 27.4859C75.7294 27.4859 73.765 27.084 72.079 26.2804C70.4093 25.4767 69.1079 24.3533 68.1749 22.91C67.2418 21.4503 66.7753 19.7528 66.7753 17.8174C66.7753 15.8821 67.2418 14.1928 68.1749 12.7495C69.1079 11.2898 70.4093 10.1581 72.079 9.3545C73.765 8.55085 75.7294 8.14902 77.972 8.14902C80.2146 8.14902 82.1708 8.55085 83.8405 9.3545C85.5265 10.1581 86.8361 11.2898 87.7692 12.7495C88.7022 14.1928 89.1687 15.8821 89.1687 17.8174C89.1687 19.7528 88.7022 21.4503 87.7692 22.91C86.8361 24.3533 85.5265 25.4767 83.8405 26.2804C82.1708 27.084 80.2146 27.4859 77.972 27.4859ZM77.972 21.8275C78.9706 21.8275 79.8299 21.6717 80.5502 21.3601C81.2705 21.032 81.8188 20.5728 82.1953 19.9824C82.5882 19.3755 82.7846 18.6539 82.7846 17.8174C82.7846 16.981 82.5882 16.2675 82.1953 15.6771C81.8188 15.0703 81.2705 14.611 80.5502 14.2994C79.8299 13.9714 78.9706 13.8074 77.972 13.8074C76.9735 13.8074 76.1141 13.9714 75.3938 14.2994C74.6736 14.611 74.117 15.0703 73.7241 15.6771C73.3476 16.2675 73.1594 16.981 73.1594 17.8174C73.1594 18.6539 73.3476 19.3755 73.7241 19.9824C74.117 20.5728 74.6736 21.032 75.3938 21.3601C76.1141 21.6717 76.9735 21.8275 77.972 21.8275Z" fill="#18181C"/>
<path d="M112.583 19.0475C112.387 20.7368 111.806 22.2129 110.84 23.4758C109.891 24.7387 108.63 25.7227 107.059 26.428C105.487 27.1332 103.687 27.4859 101.657 27.4859C99.4632 27.4859 97.548 27.084 95.911 26.2804C94.2741 25.4767 92.9972 24.3533 92.0805 22.91C91.1802 21.4503 90.7301 19.7528 90.7301 17.8174C90.7301 15.8821 91.1802 14.1928 92.0805 12.7495C92.9972 11.2898 94.2741 10.1581 95.911 9.3545C97.548 8.55085 99.4632 8.14902 101.657 8.14902C103.687 8.14902 105.487 8.50164 107.059 9.20689C108.63 9.91213 109.891 10.8962 110.84 12.1591C111.806 13.422 112.387 14.8981 112.583 16.5874H106.224C106.076 15.9477 105.806 15.4065 105.414 14.9637C105.021 14.5044 104.505 14.16 103.867 13.9304C103.245 13.6844 102.508 13.5614 101.657 13.5614C100.707 13.5614 99.8888 13.7336 99.2013 14.078C98.5301 14.406 98.0145 14.8898 97.6544 15.5295C97.2942 16.1691 97.1142 16.9318 97.1142 17.8174C97.1142 18.7031 97.2942 19.4657 97.6544 20.1054C98.0145 20.7286 98.5301 21.2125 99.2013 21.5569C99.8888 21.9013 100.707 22.0735 101.657 22.0735C102.508 22.0735 103.245 21.9669 103.867 21.7537C104.505 21.5241 105.021 21.1879 105.414 20.745C105.806 20.2858 106.076 19.72 106.224 19.0475H112.583Z" fill="#18181C"/>
<path d="M135.891 19.0475C135.694 20.7368 135.113 22.2129 134.147 23.4758C133.198 24.7387 131.937 25.7227 130.366 26.428C128.795 27.1332 126.994 27.4859 124.964 27.4859C122.771 27.4859 120.855 27.084 119.218 26.2804C117.581 25.4767 116.305 24.3533 115.388 22.91C114.488 21.4503 114.037 19.7528 114.037 17.8174C114.037 15.8821 114.488 14.1928 115.388 12.7495C116.305 11.2898 117.581 10.1581 119.218 9.3545C120.855 8.55085 122.771 8.14902 124.964 8.14902C126.994 8.14902 128.795 8.50164 130.366 9.20689C131.937 9.91213 133.198 10.8962 134.147 12.1591C135.113 13.422 135.694 14.8981 135.891 16.5874H129.531C129.384 15.9477 129.114 15.4065 128.721 14.9637C128.328 14.5044 127.812 14.16 127.174 13.9304C126.552 13.6844 125.815 13.5614 124.964 13.5614C124.015 13.5614 123.196 13.7336 122.509 14.078C121.837 14.406 121.322 14.8898 120.962 15.5295C120.602 16.1691 120.422 16.9318 120.422 17.8174C120.422 18.7031 120.602 19.4657 120.962 20.1054C121.322 20.7286 121.837 21.2125 122.509 21.5569C123.196 21.9013 124.015 22.0735 124.964 22.0735C125.815 22.0735 126.552 21.9669 127.174 21.7537C127.812 21.5241 128.328 21.1879 128.721 20.745C129.114 20.2858 129.384 19.72 129.531 19.0475H135.891Z" fill="#18181C"/>
<path d="M148.542 27.4859C146.299 27.4859 144.335 27.084 142.649 26.2804C140.979 25.4767 139.677 24.3533 138.744 22.91C137.811 21.4503 137.345 19.7528 137.345 17.8174C137.345 15.8821 137.811 14.1928 138.744 12.7495C139.677 11.2898 140.979 10.1581 142.649 9.3545C144.335 8.55085 146.299 8.14902 148.542 8.14902C150.784 8.14902 152.74 8.55085 154.41 9.3545C156.096 10.1581 157.406 11.2898 158.339 12.7495C159.272 14.1928 159.738 15.8821 159.738 17.8174C159.738 19.7528 159.272 21.4503 158.339 22.91C157.406 24.3533 156.096 25.4767 154.41 26.2804C152.74 27.084 150.784 27.4859 148.542 27.4859ZM148.542 21.8275C149.54 21.8275 150.399 21.6717 151.12 21.3601C151.84 21.032 152.388 20.5728 152.765 19.9824C153.158 19.3755 153.354 18.6539 153.354 17.8174C153.354 16.981 153.158 16.2675 152.765 15.6771C152.388 15.0703 151.84 14.611 151.12 14.2994C150.399 13.9714 149.54 13.8074 148.542 13.8074C147.543 13.8074 146.684 13.9714 145.963 14.2994C145.243 14.611 144.687 15.0703 144.294 15.6771C143.917 16.2675 143.729 16.981 143.729 17.8174C143.729 18.6539 143.917 19.3755 144.294 19.9824C144.687 20.5728 145.243 21.032 145.963 21.3601C146.684 21.6717 147.543 21.8275 148.542 21.8275Z" fill="#18181C"/>
<path d="M161.373 20.9664H167.806C167.872 21.3273 168.06 21.6389 168.371 21.9013C168.682 22.1473 169.108 22.3441 169.648 22.4917C170.188 22.6229 170.835 22.6885 171.588 22.6885C172.57 22.6885 173.331 22.5901 173.871 22.3933C174.428 22.1965 174.706 21.8767 174.706 21.4339C174.706 21.1386 174.551 20.8926 174.24 20.6958C173.929 20.4826 173.29 20.3432 172.324 20.2776L169.28 20.0808C166.513 19.9004 164.516 19.3099 163.288 18.3095C162.061 17.309 161.447 15.9887 161.447 14.3486C161.447 12.9709 161.84 11.8229 162.626 10.9044C163.411 9.98594 164.508 9.29709 165.916 8.83787C167.34 8.37864 169.001 8.14902 170.9 8.14902C172.75 8.14902 174.387 8.41144 175.811 8.93627C177.252 9.4447 178.389 10.1663 179.224 11.1012C180.075 12.0361 180.542 13.1267 180.624 14.3732H174.191C174.141 14.078 173.978 13.8238 173.699 13.6106C173.438 13.3974 173.061 13.2333 172.57 13.1185C172.079 13.0037 171.481 12.9463 170.778 12.9463C169.877 12.9463 169.165 13.0365 168.641 13.2169C168.134 13.3974 167.88 13.6926 167.88 14.1026C167.88 14.3814 168.027 14.6192 168.322 14.816C168.633 15.0129 169.222 15.1441 170.09 15.2097L173.528 15.4311C175.328 15.5459 176.785 15.8165 177.898 16.2429C179.011 16.653 179.822 17.227 180.329 17.965C180.853 18.7031 181.115 19.6133 181.115 20.6958C181.115 22.0571 180.714 23.2462 179.912 24.263C179.11 25.2799 177.98 26.0754 176.523 26.6494C175.083 27.207 173.397 27.4859 171.465 27.4859C169.468 27.4859 167.716 27.2152 166.21 26.674C164.704 26.1328 163.526 25.3701 162.675 24.3861C161.84 23.402 161.406 22.2621 161.373 20.9664Z" fill="#18181C"/>
<path d="M71.858 45.7394C70.7858 45.7394 69.8445 45.5385 69.0343 45.1366C68.2321 44.7348 67.606 44.1772 67.1559 43.4637C66.7057 42.7421 66.4806 41.9015 66.4806 40.9421C66.4806 39.9826 66.7057 39.1462 67.1559 38.4327C67.606 37.7111 68.2321 37.1493 69.0343 36.7475C69.8445 36.3457 70.7858 36.1448 71.858 36.1448C72.9302 36.1448 73.8674 36.3457 74.6695 36.7475C75.4798 37.1493 76.11 37.7111 76.5601 38.4327C77.0103 39.1462 77.2354 39.9826 77.2354 40.9421C77.2354 41.9015 77.0103 42.7421 76.5601 43.4637C76.11 44.1772 75.4798 44.7348 74.6695 45.1366C73.8674 45.5385 72.9302 45.7394 71.858 45.7394ZM71.858 43.882C72.5291 43.882 73.1062 43.763 73.5891 43.5252C74.0802 43.2874 74.4567 42.9471 74.7186 42.5043C74.9887 42.0614 75.1237 41.5407 75.1237 40.9421C75.1237 40.3434 74.9887 39.8227 74.7186 39.3799C74.4567 38.937 74.0802 38.5967 73.5891 38.3589C73.1062 38.1211 72.5291 38.0022 71.858 38.0022C71.195 38.0022 70.618 38.1211 70.1269 38.3589C69.6358 38.5967 69.2552 38.937 68.9851 39.3799C68.7232 39.8227 68.5923 40.3434 68.5923 40.9421C68.5923 41.5407 68.7232 42.0614 68.9851 42.5043C69.2552 42.9471 69.6358 43.2874 70.1269 43.5252C70.618 43.763 71.195 43.882 71.858 43.882Z" fill="#18181C"/>
<path d="M86.4936 42.7011C86.4117 43.2997 86.1785 43.8287 85.7938 44.2879C85.4173 44.7471 84.9303 45.1038 84.3328 45.358C83.7353 45.6123 83.0683 45.7394 82.3316 45.7394C81.4968 45.7394 80.7602 45.5877 80.1217 45.2842C79.4915 44.9726 78.9963 44.538 78.6362 43.9804C78.2843 43.4227 78.1083 42.7831 78.1083 42.0614C78.1083 41.3316 78.2843 40.692 78.6362 40.1425C78.9963 39.5849 79.4915 39.1503 80.1217 38.8386C80.7602 38.527 81.4968 38.3712 82.3316 38.3712C83.0683 38.3712 83.7353 38.5024 84.3328 38.7648C84.9303 39.019 85.4173 39.3758 85.7938 39.835C86.1785 40.286 86.4117 40.815 86.4936 41.4218H84.4433C84.3369 40.9462 84.0914 40.5812 83.7067 40.327C83.3302 40.0646 82.8718 39.9334 82.3316 39.9334C81.8979 39.9334 81.5173 40.0195 81.1899 40.1917C80.8707 40.3557 80.6251 40.5976 80.4532 40.9175C80.2814 41.2291 80.1954 41.6104 80.1954 42.0614C80.1954 42.5043 80.2814 42.8856 80.4532 43.2054C80.6251 43.517 80.8707 43.7589 81.1899 43.9312C81.5173 44.0952 81.8979 44.1772 82.3316 44.1772C82.88 44.1772 83.3425 44.0419 83.7189 43.7712C84.1036 43.5006 84.3451 43.1439 84.4433 42.7011H86.4936Z" fill="#18181C"/>
<path d="M95.6175 42.7011C95.5357 43.2997 95.3024 43.8287 94.9177 44.2879C94.5412 44.7471 94.0542 45.1038 93.4567 45.358C92.8592 45.6123 92.1922 45.7394 91.4556 45.7394C90.6207 45.7394 89.8841 45.5877 89.2457 45.2842C88.6154 44.9726 88.1203 44.538 87.7601 43.9804C87.4082 43.4227 87.2322 42.7831 87.2322 42.0614C87.2322 41.3316 87.4082 40.692 87.7601 40.1425C88.1203 39.5849 88.6154 39.1503 89.2457 38.8386C89.8841 38.527 90.6207 38.3712 91.4556 38.3712C92.1922 38.3712 92.8592 38.5024 93.4567 38.7648C94.0542 39.019 94.5412 39.3758 94.9177 39.835C95.3024 40.286 95.5357 40.815 95.6175 41.4218H93.5672C93.4608 40.9462 93.2153 40.5812 92.8306 40.327C92.4541 40.0646 91.9958 39.9334 91.4556 39.9334C91.0218 39.9334 90.6412 40.0195 90.3138 40.1917C89.9946 40.3557 89.749 40.5976 89.5772 40.9175C89.4053 41.2291 89.3193 41.6104 89.3193 42.0614C89.3193 42.5043 89.4053 42.8856 89.5772 43.2054C89.749 43.517 89.9946 43.7589 90.3138 43.9312C90.6412 44.0952 91.0218 44.1772 91.4556 44.1772C92.0039 44.1772 92.4664 44.0419 92.8429 43.7712C93.2276 43.5006 93.469 43.1439 93.5672 42.7011H95.6175Z" fill="#18181C"/>
<path d="M96.7245 38.4819L97.7435 38.6787L98.7747 38.4819V45.5549H96.7245V38.4819ZM97.7435 37.7562C97.3752 37.7562 97.0723 37.6619 96.835 37.4732C96.6058 37.2764 96.4912 37.0181 96.4912 36.6983C96.4912 36.3703 96.6058 36.112 96.835 35.9233C97.0723 35.7265 97.3752 35.6281 97.7435 35.6281C98.12 35.6281 98.4228 35.7265 98.652 35.9233C98.8811 36.112 98.9957 36.3703 98.9957 36.6983C98.9957 37.0181 98.8811 37.2764 98.652 37.4732C98.4228 37.6619 98.12 37.7562 97.7435 37.7562Z" fill="#18181C"/>
<path d="M99.6092 40.1056V39.1954L101.07 38.7156L101.942 36.7106H103.12V38.5557H106.214V40.1056H103.12V42.6519C103.12 43.1931 103.231 43.5744 103.452 43.7958C103.681 44.0091 104.074 44.1157 104.631 44.1157C104.982 44.1157 105.294 44.0829 105.564 44.0173C105.834 43.9517 106.092 43.8574 106.337 43.7343V45.3334C106.1 45.4319 105.785 45.5221 105.392 45.6041C104.999 45.6943 104.594 45.7394 104.176 45.7394C103.448 45.7394 102.854 45.6246 102.396 45.395C101.946 45.1571 101.61 44.8291 101.389 44.4109C101.177 43.9927 101.07 43.5047 101.07 42.9471V40.1056H99.6092Z" fill="#18181C"/>
<path d="M113.636 45.5549L113.341 42.9963L113.672 42.0614L113.341 41.1389L113.636 38.5557H115.759L115.354 42.0614L115.759 45.5549H113.636ZM114.176 42.0614C114.045 42.7995 113.803 43.4473 113.451 44.005C113.108 44.5544 112.67 44.9808 112.138 45.2842C111.614 45.5877 111.025 45.7394 110.37 45.7394C109.69 45.7394 109.089 45.5877 108.565 45.2842C108.041 44.9726 107.632 44.5421 107.337 43.9927C107.051 43.435 106.908 42.7913 106.908 42.0614C106.908 41.3234 107.051 40.6796 107.337 40.1302C107.632 39.5726 108.041 39.1421 108.565 38.8386C109.089 38.527 109.69 38.3712 110.37 38.3712C111.025 38.3712 111.614 38.5229 112.138 38.8263C112.67 39.1298 113.112 39.5603 113.464 40.1179C113.816 40.6673 114.053 41.3152 114.176 42.0614ZM108.983 42.0614C108.983 42.4715 109.064 42.8323 109.228 43.1439C109.4 43.4555 109.633 43.7015 109.928 43.882C110.222 44.0542 110.562 44.1403 110.947 44.1403C111.332 44.1403 111.692 44.0542 112.027 43.882C112.371 43.7015 112.674 43.4555 112.936 43.1439C113.198 42.8323 113.402 42.4715 113.55 42.0614C113.402 41.6514 113.198 41.2906 112.936 40.979C112.674 40.6591 112.371 40.4131 112.027 40.2409C111.692 40.0605 111.332 39.9703 110.947 39.9703C110.562 39.9703 110.222 40.0605 109.928 40.2409C109.633 40.4131 109.4 40.6591 109.228 40.979C109.064 41.2906 108.983 41.6514 108.983 42.0614Z" fill="#18181C"/>
<path d="M116.799 38.5557H118.849L119.291 41.225V45.5549H117.241V40.9175L116.799 38.5557ZM121.955 38.3712C122.618 38.3712 123.183 38.5065 123.65 38.7771C124.116 39.0395 124.472 39.4168 124.718 39.9088C124.963 40.4008 125.086 40.9872 125.086 41.6678V45.5549H123.036V41.9753C123.036 41.3439 122.884 40.8683 122.581 40.5484C122.279 40.2204 121.837 40.0564 121.256 40.0564C120.863 40.0564 120.515 40.1466 120.212 40.327C119.917 40.4992 119.688 40.7412 119.524 41.0528C119.369 41.3644 119.291 41.7375 119.291 42.1721L118.616 41.8154C118.698 41.0774 118.894 40.4541 119.205 39.9457C119.516 39.4373 119.909 39.0477 120.384 38.7771C120.859 38.5065 121.382 38.3712 121.955 38.3712Z" fill="#18181C"/>
<path d="M126.53 38.4819L127.549 38.6787L128.58 38.4819V45.5549H126.53V38.4819ZM127.549 37.7562C127.181 37.7562 126.878 37.6619 126.641 37.4732C126.411 37.2764 126.297 37.0181 126.297 36.6983C126.297 36.3703 126.411 36.112 126.641 35.9233C126.878 35.7265 127.181 35.6281 127.549 35.6281C127.926 35.6281 128.228 35.7265 128.458 35.9233C128.687 36.112 128.801 36.3703 128.801 36.6983C128.801 37.0181 128.687 37.2764 128.458 37.4732C128.228 37.6619 127.926 37.7562 127.549 37.7562Z" fill="#18181C"/>
<path d="M134.068 45.7394C133.241 45.7394 132.5 45.5877 131.846 45.2842C131.199 44.9726 130.688 44.538 130.311 43.9804C129.943 43.4227 129.759 42.7749 129.759 42.0368C129.759 41.307 129.935 40.6673 130.286 40.1179C130.647 39.5685 131.138 39.1421 131.76 38.8386C132.382 38.527 133.09 38.3712 133.884 38.3712C134.694 38.3712 135.39 38.5516 135.971 38.9124C136.552 39.2651 136.998 39.7653 137.309 40.4131C137.628 41.061 137.788 41.8236 137.788 42.7011H131.404V41.3357H136.683L135.885 41.8277C135.852 41.4177 135.75 41.0692 135.578 40.7822C135.414 40.4951 135.189 40.2737 134.903 40.1179C134.616 39.9621 134.281 39.8842 133.896 39.8842C133.479 39.8842 133.114 39.9703 132.803 40.1425C132.5 40.3065 132.263 40.5402 132.091 40.8437C131.928 41.1389 131.846 41.4874 131.846 41.8892C131.846 42.3731 131.952 42.7872 132.165 43.1316C132.378 43.476 132.689 43.7384 133.098 43.9189C133.507 44.0993 134.002 44.1895 134.583 44.1895C135.107 44.1895 135.635 44.1157 136.167 43.9681C136.699 43.8123 137.178 43.5949 137.604 43.3161V44.6938C137.145 45.0218 136.609 45.2801 135.995 45.4688C135.39 45.6492 134.747 45.7394 134.068 45.7394Z" fill="#18181C"/>
<path d="M147.223 45.7394C146.151 45.7394 145.21 45.5385 144.4 45.1366C143.597 44.7348 142.971 44.1772 142.521 43.4637C142.071 42.7421 141.846 41.9015 141.846 40.9421C141.846 39.9826 142.071 39.1462 142.521 38.4327C142.971 37.7111 143.597 37.1493 144.4 36.7475C145.21 36.3457 146.151 36.1448 147.223 36.1448C148.295 36.1448 149.233 36.3457 150.035 36.7475C150.845 37.1493 151.475 37.7111 151.925 38.4327C152.376 39.1462 152.601 39.9826 152.601 40.9421C152.601 41.9015 152.376 42.7421 151.925 43.4637C151.475 44.1772 150.845 44.7348 150.035 45.1366C149.233 45.5385 148.295 45.7394 147.223 45.7394ZM147.223 43.882C147.894 43.882 148.471 43.763 148.954 43.5252C149.445 43.2874 149.822 42.9471 150.084 42.5043C150.354 42.0614 150.489 41.5407 150.489 40.9421C150.489 40.3434 150.354 39.8227 150.084 39.3799C149.822 38.937 149.445 38.5967 148.954 38.3589C148.471 38.1211 147.894 38.0022 147.223 38.0022C146.56 38.0022 145.983 38.1211 145.492 38.3589C145.001 38.5967 144.621 38.937 144.35 39.3799C144.089 39.8227 143.958 40.3434 143.958 40.9421C143.958 41.5407 144.089 42.0614 144.35 42.5043C144.621 42.9471 145.001 43.2874 145.492 43.5252C145.983 43.763 146.56 43.882 147.223 43.882Z" fill="#18181C"/>
<path d="M153.842 38.5557H155.892V40.7822L155.806 41.0528V42.738L155.892 43.2423V47.5845H153.842V38.5557ZM155.18 42.0614C155.319 41.3152 155.561 40.6673 155.904 40.1179C156.256 39.5603 156.694 39.1298 157.218 38.8263C157.75 38.5229 158.339 38.3712 158.986 38.3712C159.674 38.3712 160.275 38.527 160.791 38.8386C161.315 39.1421 161.724 39.5726 162.018 40.1302C162.313 40.6796 162.46 41.3234 162.46 42.0614C162.46 42.7913 162.313 43.435 162.018 43.9927C161.724 44.5421 161.315 44.9726 160.791 45.2842C160.275 45.5877 159.674 45.7394 158.986 45.7394C158.331 45.7394 157.742 45.5877 157.218 45.2842C156.702 44.9808 156.269 44.5544 155.917 44.005C155.565 43.4473 155.319 42.7995 155.18 42.0614ZM160.386 42.0614C160.386 41.6514 160.3 41.2906 160.128 40.979C159.964 40.6591 159.735 40.4131 159.44 40.2409C159.146 40.0605 158.806 39.9703 158.421 39.9703C158.037 39.9703 157.672 40.0605 157.329 40.2409C156.985 40.4131 156.682 40.6591 156.42 40.979C156.166 41.2906 155.966 41.6514 155.819 42.0614C155.966 42.4715 156.166 42.8323 156.42 43.1439C156.682 43.4555 156.985 43.7015 157.329 43.882C157.672 44.0542 158.037 44.1403 158.421 44.1403C158.806 44.1403 159.146 44.0542 159.44 43.882C159.735 43.7015 159.964 43.4555 160.128 43.1439C160.3 42.8323 160.386 42.4715 160.386 42.0614Z" fill="#18181C"/>
<path d="M167.602 45.7394C166.776 45.7394 166.035 45.5877 165.38 45.2842C164.733 44.9726 164.222 44.538 163.845 43.9804C163.477 43.4227 163.293 42.7749 163.293 42.0368C163.293 41.307 163.469 40.6673 163.821 40.1179C164.181 39.5685 164.672 39.1421 165.294 38.8386C165.916 38.527 166.624 38.3712 167.418 38.3712C168.228 38.3712 168.924 38.5516 169.505 38.9124C170.086 39.2651 170.532 39.7653 170.843 40.4131C171.163 41.061 171.322 41.8236 171.322 42.7011H164.938V41.3357H170.217L169.419 41.8277C169.386 41.4177 169.284 41.0692 169.112 40.7822C168.949 40.4951 168.723 40.2737 168.437 40.1179C168.151 39.9621 167.815 39.8842 167.43 39.8842C167.013 39.8842 166.649 39.9703 166.338 40.1425C166.035 40.3065 165.797 40.5402 165.626 40.8437C165.462 41.1389 165.38 41.4874 165.38 41.8892C165.38 42.3731 165.486 42.7872 165.699 43.1316C165.912 43.476 166.223 43.7384 166.632 43.9189C167.042 44.0993 167.537 44.1895 168.118 44.1895C168.642 44.1895 169.17 44.1157 169.702 43.9681C170.234 43.8123 170.712 43.5949 171.138 43.3161V44.6938C170.68 45.0218 170.144 45.2801 169.53 45.4688C168.924 45.6492 168.281 45.7394 167.602 45.7394Z" fill="#18181C"/>
<path d="M172.166 38.5557H174.216L174.658 41.225V45.5549H172.608V40.9175L172.166 38.5557ZM177.322 38.3712C177.985 38.3712 178.55 38.5065 179.017 38.7771C179.483 39.0395 179.839 39.4168 180.085 39.9088C180.33 40.4008 180.453 40.9872 180.453 41.6678V45.5549H178.403V41.9753C178.403 41.3439 178.251 40.8683 177.948 40.5484C177.646 40.2204 177.204 40.0564 176.622 40.0564C176.23 40.0564 175.882 40.1466 175.579 40.327C175.284 40.4992 175.055 40.7412 174.891 41.0528C174.736 41.3644 174.658 41.7375 174.658 42.1721L173.983 41.8154C174.065 41.0774 174.261 40.4541 174.572 39.9457C174.883 39.4373 175.276 39.0477 175.751 38.7771C176.226 38.5065 176.749 38.3712 177.322 38.3712Z" fill="#18181C"/>
<path d="M184.719 42.5412H186.831C186.88 42.8528 187.015 43.1275 187.236 43.3653C187.465 43.5949 187.768 43.7753 188.144 43.9066C188.529 44.0296 188.971 44.0911 189.47 44.0911C190.199 44.0911 190.772 43.9886 191.189 43.7835C191.615 43.5703 191.828 43.2751 191.828 42.8979C191.828 42.6027 191.705 42.3772 191.459 42.2213C191.222 42.0573 190.776 41.9384 190.121 41.8646L188.267 41.6555C187.072 41.5243 186.205 41.2455 185.664 40.8191C185.132 40.3844 184.866 39.7817 184.866 39.0108C184.866 38.404 185.042 37.8874 185.394 37.4609C185.754 37.0345 186.258 36.7106 186.904 36.4892C187.551 36.2596 188.312 36.1448 189.188 36.1448C190.039 36.1448 190.796 36.2719 191.459 36.5261C192.122 36.7721 192.65 37.1206 193.043 37.5717C193.436 38.0145 193.649 38.5352 193.681 39.1339H191.57C191.529 38.8632 191.406 38.6295 191.201 38.4327C191.005 38.2277 190.731 38.0719 190.379 37.9653C190.027 37.8505 189.614 37.7931 189.139 37.7931C188.476 37.7931 187.948 37.8915 187.555 38.0883C187.162 38.2851 186.966 38.5639 186.966 38.9247C186.966 39.2036 187.08 39.4209 187.31 39.5767C187.547 39.7243 187.96 39.835 188.55 39.9088L190.477 40.1425C191.328 40.2327 192.004 40.3803 192.503 40.5853C193.01 40.7822 193.37 41.0487 193.583 41.3849C193.804 41.7211 193.915 42.1475 193.915 42.6642C193.915 43.2792 193.726 43.8204 193.35 44.2879C192.982 44.7471 192.462 45.1038 191.791 45.358C191.12 45.6123 190.334 45.7394 189.433 45.7394C188.517 45.7394 187.711 45.6082 187.015 45.3457C186.319 45.0751 185.771 44.702 185.37 44.2264C184.969 43.7425 184.752 43.1808 184.719 42.5412Z" fill="#18181C"/>
<path d="M199.124 45.7394C198.256 45.7394 197.495 45.5877 196.84 45.2842C196.185 44.9726 195.674 44.5421 195.306 43.9927C194.937 43.435 194.753 42.7913 194.753 42.0614C194.753 41.3234 194.937 40.6796 195.306 40.1302C195.674 39.5726 196.185 39.1421 196.84 38.8386C197.495 38.527 198.256 38.3712 199.124 38.3712C199.991 38.3712 200.752 38.527 201.407 38.8386C202.062 39.1421 202.569 39.5726 202.93 40.1302C203.298 40.6796 203.482 41.3234 203.482 42.0614C203.482 42.7913 203.298 43.435 202.93 43.9927C202.569 44.5421 202.062 44.9726 201.407 45.2842C200.752 45.5877 199.991 45.7394 199.124 45.7394ZM199.124 44.1772C199.598 44.1772 200.004 44.0911 200.339 43.9189C200.683 43.7466 200.945 43.5047 201.125 43.1931C201.313 42.8733 201.407 42.4961 201.407 42.0614C201.407 41.6186 201.313 41.2414 201.125 40.9298C200.945 40.6099 200.683 40.3639 200.339 40.1917C200.004 40.0195 199.598 39.9334 199.124 39.9334C198.657 39.9334 198.252 40.0195 197.908 40.1917C197.565 40.3639 197.299 40.6099 197.11 40.9298C196.93 41.2414 196.84 41.6186 196.84 42.0614C196.84 42.4961 196.93 42.8733 197.11 43.1931C197.299 43.5047 197.565 43.7466 197.908 43.9189C198.252 44.0911 198.657 44.1772 199.124 44.1772Z" fill="#18181C"/>
<path d="M207.636 45.7394C206.989 45.7394 206.437 45.6082 205.978 45.3457C205.528 45.0751 205.18 44.6938 204.935 44.2018C204.697 43.7097 204.579 43.1275 204.579 42.4551V38.5557H206.629V42.1475C206.629 42.7708 206.776 43.2464 207.071 43.5744C207.366 43.8943 207.783 44.0542 208.323 44.0542C208.724 44.0542 209.064 43.9722 209.342 43.8081C209.629 43.6359 209.85 43.3899 210.005 43.0701C210.161 42.7503 210.238 42.3772 210.238 41.9507L210.901 42.3075C210.82 43.0291 210.627 43.6482 210.324 44.1649C210.022 44.6733 209.637 45.0628 209.17 45.3334C208.712 45.6041 208.2 45.7394 207.636 45.7394ZM210.668 45.5549L210.238 42.8979V38.5557H212.289V43.2054L212.718 45.5549H210.668Z" fill="#18181C"/>
<path d="M213.601 38.5557H215.676L216.093 41.0774V45.5549H214.043V40.856L213.601 38.5557ZM219.494 38.4819V40.2532C219.281 40.204 219.069 40.1671 218.856 40.1425C218.643 40.1179 218.443 40.1056 218.254 40.1056C217.845 40.1056 217.477 40.1917 217.149 40.3639C216.822 40.5361 216.564 40.8027 216.376 41.1635C216.188 41.5243 216.093 41.9794 216.093 42.5289L215.664 42.0122C215.713 41.512 215.803 41.0446 215.934 40.6099C216.065 40.1671 216.245 39.7817 216.474 39.4537C216.711 39.1175 217.002 38.855 217.346 38.6664C217.689 38.4696 218.099 38.3712 218.573 38.3712C218.729 38.3712 218.884 38.3835 219.04 38.4081C219.204 38.4245 219.355 38.4491 219.494 38.4819Z" fill="#18181C"/>
<path d="M228.232 42.7011C228.15 43.2997 227.917 43.8287 227.532 44.2879C227.156 44.7471 226.669 45.1038 226.071 45.358C225.474 45.6123 224.807 45.7394 224.07 45.7394C223.235 45.7394 222.499 45.5877 221.86 45.2842C221.23 44.9726 220.735 44.538 220.375 43.9804C220.023 43.4227 219.847 42.7831 219.847 42.0614C219.847 41.3316 220.023 40.692 220.375 40.1425C220.735 39.5849 221.23 39.1503 221.86 38.8386C222.499 38.527 223.235 38.3712 224.07 38.3712C224.807 38.3712 225.474 38.5024 226.071 38.7648C226.669 39.019 227.156 39.3758 227.532 39.835C227.917 40.286 228.15 40.815 228.232 41.4218H226.182C226.075 40.9462 225.83 40.5812 225.445 40.327C225.069 40.0646 224.61 39.9334 224.07 39.9334C223.636 39.9334 223.256 40.0195 222.928 40.1917C222.609 40.3557 222.364 40.5976 222.192 40.9175C222.02 41.2291 221.934 41.6104 221.934 42.0614C221.934 42.5043 222.02 42.8856 222.192 43.2054C222.364 43.517 222.609 43.7589 222.928 43.9312C223.256 44.0952 223.636 44.1772 224.07 44.1772C224.619 44.1772 225.081 44.0419 225.457 43.7712C225.842 43.5006 226.084 43.1439 226.182 42.7011H228.232Z" fill="#18181C"/>
<path d="M233.28 45.7394C232.453 45.7394 231.713 45.5877 231.058 45.2842C230.411 44.9726 229.9 44.538 229.523 43.9804C229.155 43.4227 228.971 42.7749 228.971 42.0368C228.971 41.307 229.147 40.6673 229.499 40.1179C229.859 39.5685 230.35 39.1421 230.972 38.8386C231.594 38.527 232.302 38.3712 233.096 38.3712C233.906 38.3712 234.602 38.5516 235.183 38.9124C235.764 39.2651 236.21 39.7653 236.521 40.4131C236.84 41.061 237 41.8236 237 42.7011H230.616V41.3357H235.895L235.097 41.8277C235.064 41.4177 234.962 41.0692 234.79 40.7822C234.626 40.4951 234.401 40.2737 234.115 40.1179C233.828 39.9621 233.493 39.8842 233.108 39.8842C232.691 39.8842 232.327 39.9703 232.015 40.1425C231.713 40.3065 231.475 40.5402 231.303 40.8437C231.14 41.1389 231.058 41.4874 231.058 41.8892C231.058 42.3731 231.164 42.7872 231.377 43.1316C231.59 43.476 231.901 43.7384 232.31 43.9189C232.719 44.0993 233.215 44.1895 233.796 44.1895C234.319 44.1895 234.847 44.1157 235.379 43.9681C235.911 43.8123 236.39 43.5949 236.816 43.3161V44.6938C236.357 45.0218 235.821 45.2801 235.208 45.4688C234.602 45.6492 233.959 45.7394 233.28 45.7394Z" fill="#18181C"/>
</svg>
